<?xml version="1.0" encoding="utf-8"?>
<!-- Generator: Adobe Illustrator 22.0.1, SVG Export Plug-In . SVG Version: 6.00 Build 0)  -->
<svg version="1.1" xmlns="http://www.w3.org/2000/svg" xmlns:xlink="http://www.w3.org/1999/xlink" x="0px" y="0px"
	 viewBox="0 0 360 360" style="enable-background:new 0 0 360 360;" xml:space="preserve">
<style type="text/css">
	.st0{display:none;}
	.st1{display:inline;}
	.st2{display:inline;fill:#323232;}
	.st3{fill:#FFFFFF;}
	.st4{fill:url(#SVGID_1_);}
	.st5{fill:url(#SVGID_2_);}
	.st6{fill:url(#SVGID_3_);}
	.st7{fill:url(#SVGID_4_);}
	.st8{fill:url(#SVGID_5_);}
	.st9{fill:url(#SVGID_6_);}
	.st10{fill:url(#SVGID_7_);}
	.st11{fill:url(#SVGID_8_);}
	.st12{fill:url(#SVGID_10_);}
	.st13{fill:url(#SVGID_11_);}
	.st14{fill:url(#SVGID_12_);}
	.st15{fill:url(#SVGID_13_);}
	.st16{fill:url(#SVGID_14_);}
	.st17{fill:url(#SVGID_15_);}
	.st18{fill:url(#SVGID_16_);}
	.st19{fill:url(#SVGID_18_);}
	.st20{fill:url(#SVGID_20_);}
	.st21{fill:url(#SVGID_21_);}
	.st22{fill:url(#SVGID_22_);}
	.st23{fill:url(#SVGID_23_);}
	.st24{fill:url(#SVGID_24_);}
	.st25{fill:url(#SVGID_25_);}
	.st26{fill:url(#SVGID_26_);}
	.st27{fill:url(#SVGID_28_);}
	.st28{fill:url(#SVGID_29_);}
	.st29{fill:url(#SVGID_30_);}
	.st30{fill:url(#SVGID_31_);}
	.st31{fill:url(#SVGID_32_);}
	.st32{fill:url(#SVGID_33_);}
	.st33{fill:url(#SVGID_34_);}
	.st34{fill:url(#SVGID_35_);}
	.st35{fill:url(#SVGID_36_);}
	.st36{fill:#808080;}
	.st37{fill:url(#SVGID_38_);}
	.st38{fill:url(#SVGID_39_);}
	.st39{fill:url(#SVGID_40_);}
	.st40{fill:url(#SVGID_41_);}
	.st41{fill:url(#SVGID_42_);}
	.st42{fill:url(#SVGID_43_);}
	.st43{fill:url(#SVGID_44_);}
	.st44{fill:url(#SVGID_46_);}
	.st45{fill:url(#SVGID_48_);}
	.st46{fill:url(#SVGID_49_);}
	.st47{fill:url(#SVGID_50_);}
	.st48{fill:url(#SVGID_51_);}
	.st49{fill:url(#SVGID_52_);}
	.st50{fill:url(#SVGID_53_);}
	.st51{fill:url(#SVGID_54_);}
	.st52{fill:url(#SVGID_56_);}
	.st53{fill:url(#SVGID_58_);}
	.st54{fill:url(#SVGID_59_);}
	.st55{fill:url(#SVGID_60_);}
	.st56{fill:url(#SVGID_61_);}
	.st57{fill:url(#SVGID_62_);}
	.st58{fill:url(#SVGID_63_);}
	.st59{fill:url(#SVGID_64_);}
	.st60{fill:url(#SVGID_66_);}
	.st61{fill:url(#SVGID_68_);}
	.st62{fill:url(#SVGID_69_);}
	.st63{fill:url(#SVGID_70_);}
	.st64{fill:url(#SVGID_71_);}
	.st65{fill:url(#SVGID_72_);}
	.st66{fill:url(#SVGID_73_);}
	.st67{fill:url(#SVGID_74_);}
	.st68{fill:url(#SVGID_76_);}
	.st69{fill:url(#SVGID_77_);}
	.st70{fill:url(#SVGID_78_);}
	.st71{fill:url(#SVGID_79_);}
	.st72{fill:url(#SVGID_80_);}
	.st73{fill:url(#SVGID_81_);}
	.st74{fill:url(#SVGID_82_);}
	.st75{fill:url(#SVGID_83_);}
	.st76{fill:url(#SVGID_84_);}
	.st77{fill:url(#SVGID_86_);}
	.st78{fill:url(#SVGID_87_);}
	.st79{clip-path:url(#SVGID_88_);}
	.st80{fill:url(#SVGID_89_);}
	.st81{fill:url(#SVGID_91_);}
	.st82{fill:url(#SVGID_92_);}
	.st83{clip-path:url(#SVGID_94_);}
	.st84{fill:url(#SVGID_95_);}
	.st85{fill:url(#SVGID_98_);}
	.st86{fill:url(#SVGID_99_);}
	.st87{clip-path:url(#SVGID_101_);}
	.st88{fill:url(#SVGID_102_);}
	.st89{fill:url(#SVGID_105_);}
	.st90{fill:url(#SVGID_106_);}
	.st91{clip-path:url(#SVGID_108_);}
	.st92{fill:url(#SVGID_109_);}
	.st93{fill:url(#SVGID_112_);}
	.st94{fill:url(#SVGID_113_);}
	.st95{clip-path:url(#SVGID_115_);}
	.st96{fill:url(#SVGID_116_);}
	.st97{fill:#F2F2F2;}
	.st98{fill:url(#SVGID_119_);}
	.st99{fill:url(#SVGID_120_);}
	.st100{clip-path:url(#SVGID_122_);}
	.st101{fill:url(#SVGID_123_);}
	.st102{opacity:0.7;fill:#FFFFFF;}
	.st103{opacity:0.9;fill:#FFFFFF;}
</style>
<g id="Backgrounds" class="st0">
</g>
<g id="Logos">
	<g>
		<path d="M139.8,169.8c-0.8-1.2-1.8-2.2-3-2.8c-1.2-0.7-2.8-1-4.6-1c-3.3,0-5.7,1.2-7.3,3.6c-1.6,2.4-2.4,5.9-2.4,10.3
			c0,2.1,0.2,4,0.5,5.7c0.3,1.7,0.9,3.2,1.7,4.4c0.8,1.2,1.8,2.2,3,2.8c1.2,0.7,2.7,1,4.5,1c3.3,0,5.8-1.2,7.4-3.6
			c1.6-2.4,2.4-5.9,2.4-10.3c0-2.1-0.2-4-0.5-5.7C141.1,172.5,140.6,171,139.8,169.8z M137.1,188.3c-1,1.8-2.6,2.7-4.9,2.7
			c-1.2,0-2.3-0.3-3.1-0.9c-0.8-0.6-1.4-1.4-1.9-2.4c-0.5-1-0.8-2.2-1-3.5c-0.2-1.3-0.3-2.8-0.3-4.2c0-3.8,0.5-6.6,1.5-8.4
			c1-1.8,2.6-2.7,4.8-2.7c1.2,0,2.3,0.3,3.1,0.9c0.8,0.6,1.5,1.4,2,2.4c0.5,1,0.8,2.2,1,3.5c0.2,1.3,0.3,2.8,0.3,4.2
			C138.6,183.7,138.1,186.5,137.1,188.3z"/>
		<path d="M156.9,173.7c-1.5,0-2.8,0.3-3.9,0.9c-1.1,0.6-1.9,1.4-2.6,2.3h-0.2l-0.4-2.7h-5.1v2.5h2.6c0.1,0.3,0.1,0.6,0.1,1
			c0,0.4,0.1,0.8,0.1,1.2c0,0.4,0,0.8,0.1,1.2c0,0.4,0,0.7,0,0.9v19.2h3V193c0.4,0.2,0.7,0.3,1.1,0.4c0.3,0.1,0.7,0.2,1,0.3
			c0.3,0.1,0.7,0.1,1.2,0.2c0.4,0,0.9,0.1,1.4,0.1c1.5,0,2.9-0.2,4.1-0.7c1.2-0.5,2.3-1.2,3.2-2.1c0.9-0.9,1.5-2,2-3.3
			c0.5-1.3,0.7-2.8,0.7-4.4c0-3.4-0.7-5.9-2.1-7.4C161.8,174.4,159.7,173.7,156.9,173.7z M160.2,189.3c-1.2,1.3-2.9,2-4.9,2
			c-1.2,0-2.1-0.1-2.8-0.3c-0.7-0.2-1.3-0.5-1.9-0.9v-8.8c0.1-0.6,0.3-1.1,0.6-1.7c0.3-0.6,0.8-1.1,1.3-1.5c0.5-0.5,1.1-0.8,1.8-1.1
			c0.7-0.3,1.4-0.4,2.2-0.4c2,0,3.4,0.6,4.3,1.8c0.9,1.2,1.3,2.9,1.3,5.1C162,186,161.4,187.9,160.2,189.3z"/>
		<path d="M184.5,175.7c-0.8-0.8-1.7-1.3-2.8-1.6c-1.1-0.3-2.1-0.4-3.2-0.4c-1.5,0-2.8,0.2-4,0.7c-1.2,0.4-2.2,1.1-3.1,1.9
			c-0.8,0.8-1.5,1.9-1.9,3.2c-0.5,1.3-0.7,2.7-0.7,4.3c0,1.5,0.2,2.9,0.6,4.2c0.4,1.2,1,2.3,1.8,3.2c0.8,0.9,1.8,1.6,3,2
			c1.2,0.5,2.5,0.7,4.1,0.7c0.8,0,1.6-0.1,2.4-0.2c0.8-0.1,1.6-0.3,2.3-0.6c0.7-0.3,1.4-0.6,2.1-0.9c0.6-0.4,1.2-0.7,1.6-1.2
			l-1.2-2.2c-0.3,0.2-0.6,0.5-1.1,0.8c-0.5,0.3-1,0.5-1.6,0.8c-0.6,0.2-1.3,0.4-1.9,0.6c-0.7,0.2-1.4,0.3-2.1,0.3
			c-2.1,0-3.7-0.6-5-1.7c-1.2-1.1-1.9-2.9-1.9-5.2h14.9c0.1-2.2,0-4-0.5-5.3C185.9,177.6,185.3,176.5,184.5,175.7z M172,181.6
			c0.1-1,0.3-1.8,0.7-2.5c0.4-0.7,0.8-1.2,1.4-1.7c0.6-0.4,1.2-0.7,2-0.9c0.8-0.2,1.6-0.3,2.4-0.3c1.6,0,2.8,0.5,3.8,1.4
			c1,0.9,1.5,2.3,1.6,4H172z"/>
		<path d="M207.4,175.4c-0.6-0.7-1.4-1.1-2.3-1.4c-0.9-0.3-2-0.4-3.1-0.4c-0.8,0-1.5,0.1-2.2,0.3c-0.7,0.2-1.3,0.5-1.9,0.8
			c-0.6,0.3-1.1,0.7-1.5,1.2s-0.8,0.9-1,1.3h-0.2l-0.3-3.1h-5.2v2.5h2.6c0.1,0.3,0.1,0.6,0.1,1c0,0.4,0.1,0.8,0.1,1.2
			c0,0.4,0,0.8,0.1,1.2c0,0.4,0,0.7,0,0.9v12.5h3v-12.1c0.2-0.6,0.5-1.3,0.8-1.8c0.4-0.6,0.8-1.1,1.3-1.5c0.5-0.4,1.1-0.8,1.7-1.1
			c0.6-0.3,1.3-0.4,1.9-0.4c1.8,0,3.1,0.5,3.8,1.6c0.7,1.1,1,2.7,1,4.8v10.5h3v-11.1c0-1.7-0.2-3.1-0.5-4.3
			C208.4,177,208,176.1,207.4,175.4z"/>
		<path d="M274.6,175.4c-0.6-0.7-1.4-1.1-2.3-1.4c-0.9-0.3-2-0.4-3.1-0.4c-0.8,0-1.5,0.1-2.2,0.3c-0.7,0.2-1.3,0.5-1.9,0.8
			c-0.6,0.3-1.1,0.7-1.5,1.2s-0.8,0.9-1,1.3h-0.2l-0.3-3.1h-5.2v2.5h2.6c0.1,0.3,0.1,0.6,0.1,1c0,0.4,0.1,0.8,0.1,1.2
			c0,0.4,0,0.8,0.1,1.2c0,0.4,0,0.7,0,0.9v12.5h3v-12.1c0.2-0.6,0.5-1.3,0.8-1.8c0.4-0.6,0.8-1.1,1.3-1.5s1.1-0.8,1.7-1.1
			c0.6-0.3,1.3-0.4,1.9-0.4c1.8,0,3.1,0.5,3.8,1.6c0.7,1.1,1,2.7,1,4.8v10.5h3v-11.1c0-1.7-0.2-3.1-0.5-4.3
			C275.7,177,275.2,176.1,274.6,175.4z"/>
		<path d="M296.9,175.7c-0.8-0.8-1.7-1.3-2.8-1.6c-1.1-0.3-2.1-0.4-3.2-0.4c-1.5,0-2.8,0.2-4,0.7c-1.2,0.4-2.2,1.1-3.1,1.9
			c-0.8,0.8-1.5,1.9-1.9,3.2c-0.5,1.3-0.7,2.7-0.7,4.3c0,1.5,0.2,2.9,0.6,4.2c0.4,1.2,1,2.3,1.8,3.2c0.8,0.9,1.8,1.6,3,2
			c1.2,0.5,2.5,0.7,4.1,0.7c0.8,0,1.6-0.1,2.4-0.2c0.8-0.1,1.6-0.3,2.3-0.6c0.7-0.3,1.4-0.6,2.1-0.9c0.6-0.4,1.2-0.7,1.6-1.2
			l-1.2-2.2c-0.3,0.2-0.6,0.5-1.1,0.8c-0.5,0.3-1,0.5-1.6,0.8c-0.6,0.2-1.3,0.4-1.9,0.6c-0.7,0.2-1.4,0.3-2.1,0.3
			c-2.1,0-3.7-0.6-5-1.7c-1.2-1.1-1.9-2.9-1.9-5.2h14.9c0.1-2.2,0-4-0.5-5.3C298.3,177.6,297.7,176.5,296.9,175.7z M284.4,181.6
			c0.1-1,0.3-1.8,0.7-2.5c0.4-0.7,0.8-1.2,1.4-1.7c0.6-0.4,1.2-0.7,2-0.9c0.8-0.2,1.6-0.3,2.4-0.3c1.6,0,2.8,0.5,3.8,1.4
			c1,0.9,1.5,2.3,1.6,4H284.4z"/>
		<path d="M321.4,190.9c-0.1-0.3-0.1-0.6-0.2-1c-0.1-0.4-0.1-0.8-0.1-1.1c0-0.4-0.1-0.8-0.1-1.1s0-0.6,0-0.9v-20.4h-3v8.1
			c-0.4-0.1-0.7-0.2-1.1-0.3c-0.3-0.1-0.7-0.2-1-0.2c-0.4-0.1-0.8-0.1-1.2-0.1c-0.4,0-0.9,0-1.4,0c-1.5,0-2.8,0.2-4,0.7
			c-1.2,0.4-2.2,1.1-3.1,1.9c-0.9,0.8-1.5,1.9-2,3.1c-0.5,1.2-0.7,2.7-0.7,4.3c0,3.4,0.7,6,2.1,7.6c1.4,1.6,3.5,2.4,6.4,2.4
			c1.5,0,2.8-0.3,3.9-1c1.1-0.7,2-1.5,2.5-2.4h0.2l0.4,3h5.2v-2.5H321.4z M317.9,186.5c-0.3,1.6-0.9,2.8-1.8,3.6
			c-0.9,0.8-2.1,1.2-3.7,1.2c-1.1,0-2-0.2-2.7-0.6c-0.7-0.4-1.3-0.9-1.8-1.6c-0.4-0.7-0.8-1.5-1-2.4c-0.2-0.9-0.3-1.9-0.3-3
			c0-2.6,0.6-4.5,1.8-5.7c1.2-1.2,2.8-1.8,4.8-1.8c1.2,0,2.1,0.1,2.8,0.3c0.7,0.2,1.3,0.5,1.9,0.8V186.5z"/>
		<rect x="245.5" y="167.2" transform="matrix(0.7071 -0.7071 0.7071 0.7071 -47.0489 224.3784)" width="3.6" height="3.6"/>
		<polygon points="248.9,174.2 239.2,174.2 239.2,176.7 245.9,176.7 245.9,190.9 239.2,190.9 239.2,193.4 255.5,193.4 255.5,190.9 
			248.9,190.9 		"/>
		<path d="M224.7,176.8l-6.4-10.3h-3v27h3.1v-20.7l5.1,7.9c0.6,0.9,1.9,0.9,2.4,0l5.1-7.9v20.7h3.1v-27h-3L224.7,176.8z"/>
		<path d="M103.9,176.3l-18.5-10.7l-10.7-18.5c-1.6-2.8-5.7-2.8-7.3,0l-10.7,18.5l-18.5,10.7c-2.8,1.6-2.8,5.7,0,7.3l18.5,10.7
			l10.7,18.5c1.6,2.8,5.7,2.8,7.3,0l10.7-18.5l18.5-10.7C106.7,182,106.7,178,103.9,176.3z M93.6,180L93.6,180L71,202.6v0v0l0,0l0,0
			v0L48.4,180h0h0l0,0l0,0h0L71,157.4v0v0l0,0l0,0v0L93.6,180L93.6,180L93.6,180L93.6,180L93.6,180z"/>
		<polygon points="71,166.4 71,166.4 57.4,180 71,193.6 71,193.6 84.6,180 84.6,180 		"/>
	</g>
</g>
</svg>
