<?xml version="1.0" encoding="utf-8"?>
<!-- Generator: Adobe Illustrator 22.0.1, SVG Export Plug-In . SVG Version: 6.00 Build 0)  -->
<svg version="1.1" xmlns="http://www.w3.org/2000/svg" xmlns:xlink="http://www.w3.org/1999/xlink" x="0px" y="0px"
	 viewBox="0 0 360 360" style="enable-background:new 0 0 360 360;" xml:space="preserve">
<style type="text/css">
	.st0{display:none;}
	.st1{display:inline;}
	.st2{display:inline;fill:#323232;}
	.st3{fill:#FFFFFF;}
	.st4{fill:url(#SVGID_1_);}
	.st5{fill:url(#SVGID_2_);}
	.st6{fill:url(#SVGID_3_);}
	.st7{fill:url(#SVGID_4_);}
	.st8{fill:url(#SVGID_5_);}
	.st9{fill:url(#SVGID_6_);}
	.st10{fill:url(#SVGID_7_);}
	.st11{fill:url(#SVGID_8_);}
	.st12{fill:url(#SVGID_10_);}
	.st13{fill:url(#SVGID_11_);}
	.st14{fill:url(#SVGID_12_);}
	.st15{fill:url(#SVGID_13_);}
	.st16{fill:url(#SVGID_14_);}
	.st17{fill:url(#SVGID_15_);}
	.st18{fill:url(#SVGID_16_);}
	.st19{fill:url(#SVGID_18_);}
	.st20{fill:url(#SVGID_20_);}
	.st21{fill:url(#SVGID_21_);}
	.st22{fill:url(#SVGID_22_);}
	.st23{fill:url(#SVGID_23_);}
	.st24{fill:url(#SVGID_24_);}
	.st25{fill:url(#SVGID_25_);}
	.st26{fill:url(#SVGID_26_);}
	.st27{fill:url(#SVGID_28_);}
	.st28{fill:url(#SVGID_29_);}
	.st29{fill:url(#SVGID_30_);}
	.st30{fill:url(#SVGID_31_);}
	.st31{fill:url(#SVGID_32_);}
	.st32{fill:url(#SVGID_33_);}
	.st33{fill:url(#SVGID_34_);}
	.st34{fill:url(#SVGID_35_);}
	.st35{fill:url(#SVGID_36_);}
	.st36{fill:#808080;}
	.st37{fill:url(#SVGID_38_);}
	.st38{fill:url(#SVGID_39_);}
	.st39{fill:url(#SVGID_40_);}
	.st40{fill:url(#SVGID_41_);}
	.st41{fill:url(#SVGID_42_);}
	.st42{fill:url(#SVGID_43_);}
	.st43{fill:url(#SVGID_44_);}
	.st44{fill:url(#SVGID_46_);}
	.st45{fill:url(#SVGID_48_);}
	.st46{fill:url(#SVGID_49_);}
	.st47{fill:url(#SVGID_50_);}
	.st48{fill:url(#SVGID_51_);}
	.st49{fill:url(#SVGID_52_);}
	.st50{fill:url(#SVGID_53_);}
	.st51{fill:url(#SVGID_54_);}
	.st52{fill:url(#SVGID_56_);}
	.st53{fill:url(#SVGID_58_);}
	.st54{fill:url(#SVGID_59_);}
	.st55{fill:url(#SVGID_60_);}
	.st56{fill:url(#SVGID_61_);}
	.st57{fill:url(#SVGID_62_);}
	.st58{fill:url(#SVGID_63_);}
	.st59{fill:url(#SVGID_64_);}
	.st60{fill:url(#SVGID_66_);}
	.st61{fill:url(#SVGID_68_);}
	.st62{fill:url(#SVGID_69_);}
	.st63{fill:url(#SVGID_70_);}
	.st64{fill:url(#SVGID_71_);}
	.st65{fill:url(#SVGID_72_);}
	.st66{fill:url(#SVGID_73_);}
	.st67{fill:url(#SVGID_74_);}
	.st68{fill:url(#SVGID_76_);}
	.st69{fill:url(#SVGID_77_);}
	.st70{fill:url(#SVGID_78_);}
	.st71{fill:url(#SVGID_79_);}
	.st72{fill:url(#SVGID_80_);}
	.st73{fill:url(#SVGID_81_);}
	.st74{fill:url(#SVGID_82_);}
	.st75{fill:url(#SVGID_83_);}
	.st76{fill:url(#SVGID_84_);}
	.st77{fill:url(#SVGID_86_);}
	.st78{fill:url(#SVGID_87_);}
	.st79{clip-path:url(#SVGID_88_);}
	.st80{fill:url(#SVGID_89_);}
	.st81{fill:url(#SVGID_91_);}
	.st82{fill:url(#SVGID_92_);}
	.st83{clip-path:url(#SVGID_94_);}
	.st84{fill:url(#SVGID_95_);}
	.st85{fill:url(#SVGID_98_);}
	.st86{fill:url(#SVGID_99_);}
	.st87{clip-path:url(#SVGID_101_);}
	.st88{fill:url(#SVGID_102_);}
	.st89{fill:url(#SVGID_105_);}
	.st90{fill:url(#SVGID_106_);}
	.st91{clip-path:url(#SVGID_108_);}
	.st92{fill:url(#SVGID_109_);}
	.st93{fill:url(#SVGID_112_);}
	.st94{fill:url(#SVGID_113_);}
	.st95{clip-path:url(#SVGID_115_);}
	.st96{fill:url(#SVGID_116_);}
	.st97{fill:#F2F2F2;}
	.st98{fill:url(#SVGID_119_);}
	.st99{fill:url(#SVGID_120_);}
	.st100{clip-path:url(#SVGID_122_);}
	.st101{fill:url(#SVGID_123_);}
	.st102{opacity:0.7;fill:#FFFFFF;}
	.st103{opacity:0.9;fill:#FFFFFF;}
</style>
<g id="Backgrounds" class="st0">
	<rect class="st1" width="360" height="360"/>
</g>
<g id="Logos">
	<g>
		<path class="st3" d="M75.6,217.8c-1-1.5-2.2-2.7-3.8-3.5c-1.6-0.8-3.5-1.3-5.7-1.3c-4.1,0-7.2,1.5-9.1,4.5c-2,3-3,7.3-3,12.9
			c0,2.6,0.2,5,0.6,7.2c0.4,2.1,1.1,4,2.1,5.5c1,1.5,2.2,2.7,3.8,3.5c1.5,0.8,3.4,1.3,5.6,1.3c4.2,0,7.2-1.5,9.2-4.5
			c2-3,3-7.3,3-12.9c0-2.6-0.2-5-0.6-7.2C77.2,221.2,76.5,219.4,75.6,217.8z M72.2,241c-1.3,2.3-3.3,3.4-6.1,3.4
			c-1.5,0-2.8-0.4-3.8-1.1c-1-0.8-1.8-1.8-2.4-3c-0.6-1.3-1-2.7-1.3-4.4c-0.2-1.7-0.4-3.4-0.4-5.3c0-4.7,0.6-8.2,1.9-10.5
			c1.3-2.3,3.3-3.4,6-3.4c1.5,0,2.8,0.4,3.9,1.1c1,0.8,1.9,1.8,2.5,3c0.6,1.3,1,2.8,1.3,4.4c0.2,1.7,0.4,3.5,0.4,5.3
			C74.1,235.3,73.4,238.8,72.2,241z"/>
		<path class="st3" d="M97,222.7c-1.9,0-3.6,0.4-4.9,1.1c-1.3,0.8-2.4,1.7-3.3,2.8h-0.2l-0.5-3.4h-6.4v3.1h3.2
			c0.1,0.4,0.1,0.8,0.2,1.3c0,0.5,0.1,1,0.1,1.5c0,0.5,0.1,1,0.1,1.4c0,0.5,0,0.8,0,1.1v24H89v-8.8c0.5,0.2,0.9,0.4,1.4,0.5
			c0.4,0.1,0.8,0.2,1.3,0.3c0.4,0.1,0.9,0.1,1.4,0.2c0.5,0,1.1,0.1,1.8,0.1c1.9,0,3.6-0.3,5.1-0.9c1.5-0.6,2.9-1.5,4-2.6
			c1.1-1.1,1.9-2.5,2.5-4.1c0.6-1.6,0.9-3.5,0.9-5.5c0-4.3-0.9-7.4-2.6-9.3C103,223.6,100.4,222.7,97,222.7z M101,242.2
			c-1.5,1.7-3.6,2.5-6.2,2.5c-1.4,0-2.6-0.1-3.5-0.4c-0.9-0.3-1.7-0.6-2.4-1.1v-11c0.1-0.7,0.4-1.4,0.8-2.1c0.4-0.7,1-1.3,1.6-1.9
			c0.7-0.6,1.4-1,2.3-1.4c0.9-0.4,1.8-0.5,2.7-0.5c2.5,0,4.3,0.7,5.4,2.2c1.1,1.5,1.6,3.6,1.6,6.3
			C103.4,238.1,102.6,240.5,101,242.2z"/>
		<path class="st3" d="M131.4,225.2c-1-1-2.2-1.6-3.5-2c-1.3-0.4-2.7-0.5-4-0.5c-1.9,0-3.6,0.3-5.1,0.8c-1.5,0.6-2.8,1.4-3.9,2.4
			c-1.1,1.1-1.9,2.4-2.4,4c-0.6,1.6-0.8,3.4-0.8,5.4c0,1.9,0.3,3.7,0.8,5.2c0.5,1.5,1.3,2.9,2.3,4c1,1.1,2.2,2,3.7,2.6
			c1.5,0.6,3.2,0.9,5.1,0.9c1,0,2.1-0.1,3.1-0.3c1-0.2,2-0.4,2.9-0.7c0.9-0.3,1.8-0.7,2.6-1.2c0.8-0.4,1.5-0.9,2.1-1.4l-1.5-2.8
			c-0.3,0.3-0.8,0.6-1.4,1c-0.6,0.4-1.3,0.7-2,1c-0.8,0.3-1.6,0.5-2.4,0.7c-0.9,0.2-1.7,0.3-2.6,0.3c-2.6,0-4.7-0.7-6.2-2.1
			c-1.6-1.4-2.3-3.6-2.3-6.5h18.6c0.2-2.7,0-5-0.6-6.7C133.2,227.6,132.5,226.2,131.4,225.2z M115.9,232.6c0.1-1.3,0.4-2.3,0.9-3.2
			c0.5-0.9,1.1-1.5,1.8-2.1c0.7-0.5,1.6-0.9,2.5-1.1c0.9-0.2,1.9-0.3,3-0.3c2,0,3.5,0.6,4.7,1.8c1.2,1.2,1.9,2.8,2,4.9H115.9z"/>
		<path class="st3" d="M160.1,224.9c-0.8-0.8-1.7-1.4-2.8-1.7c-1.1-0.3-2.5-0.5-3.9-0.5c-1,0-1.9,0.1-2.8,0.4
			c-0.9,0.3-1.7,0.6-2.4,1c-0.7,0.4-1.3,0.9-1.9,1.4c-0.5,0.5-1,1.1-1.3,1.6h-0.2l-0.4-3.9h-6.5v3.1h3.2c0.1,0.4,0.1,0.8,0.2,1.3
			c0,0.5,0.1,1,0.1,1.5c0,0.5,0.1,1,0.1,1.4c0,0.5,0,0.8,0,1.1v15.7h3.7v-15.1c0.2-0.8,0.6-1.6,1.1-2.3c0.5-0.7,1-1.4,1.7-1.9
			c0.6-0.5,1.4-1,2.1-1.3c0.8-0.3,1.6-0.5,2.4-0.5c2.3,0,3.8,0.7,4.7,2c0.9,1.3,1.3,3.4,1.3,6v13.1h3.8v-13.8c0-2.2-0.2-3.9-0.6-5.3
			C161.4,226.8,160.9,225.7,160.1,224.9z"/>
		<path class="st3" d="M244.2,224.9c-0.8-0.8-1.7-1.4-2.8-1.7c-1.1-0.3-2.5-0.5-3.9-0.5c-1,0-1.9,0.1-2.8,0.4
			c-0.9,0.3-1.7,0.6-2.4,1c-0.7,0.4-1.3,0.9-1.9,1.4c-0.5,0.5-1,1.1-1.3,1.6h-0.2l-0.4-3.9H222v3.1h3.2c0.1,0.4,0.1,0.8,0.2,1.3
			c0,0.5,0.1,1,0.1,1.5c0,0.5,0.1,1,0.1,1.4c0,0.5,0,0.8,0,1.1v15.7h3.7v-15.1c0.2-0.8,0.6-1.6,1.1-2.3c0.5-0.7,1-1.4,1.7-1.9
			c0.6-0.5,1.4-1,2.1-1.3c0.8-0.3,1.6-0.5,2.4-0.5c2.3,0,3.8,0.7,4.7,2c0.9,1.3,1.3,3.4,1.3,6v13.1h3.8v-13.8c0-2.2-0.2-3.9-0.6-5.3
			C245.5,226.8,244.9,225.7,244.2,224.9z"/>
		<path class="st3" d="M272,225.2c-1-1-2.2-1.6-3.5-2c-1.3-0.4-2.7-0.5-4-0.5c-1.9,0-3.6,0.3-5.1,0.8c-1.5,0.6-2.8,1.4-3.9,2.4
			c-1.1,1.1-1.9,2.4-2.4,4c-0.6,1.6-0.8,3.4-0.8,5.4c0,1.9,0.3,3.7,0.8,5.2c0.5,1.5,1.3,2.9,2.3,4c1,1.1,2.2,2,3.7,2.6
			c1.5,0.6,3.2,0.9,5.1,0.9c1,0,2.1-0.1,3.1-0.3c1-0.2,2-0.4,2.9-0.7c0.9-0.3,1.8-0.7,2.6-1.2c0.8-0.4,1.5-0.9,2.1-1.4l-1.5-2.8
			c-0.3,0.3-0.8,0.6-1.4,1c-0.6,0.4-1.3,0.7-2,1c-0.8,0.3-1.6,0.5-2.4,0.7c-0.9,0.2-1.7,0.3-2.6,0.3c-2.6,0-4.7-0.7-6.2-2.1
			c-1.6-1.4-2.3-3.6-2.3-6.5H275c0.2-2.7,0-5-0.6-6.7C273.8,227.6,273.1,226.2,272,225.2z M256.5,232.6c0.1-1.3,0.4-2.3,0.9-3.2
			c0.5-0.9,1.1-1.5,1.8-2.1c0.7-0.5,1.6-0.9,2.5-1.1c0.9-0.2,1.9-0.3,3-0.3c2,0,3.5,0.6,4.7,1.8c1.2,1.2,1.9,2.8,2,4.9H256.5z"/>
		<path class="st3" d="M302.8,244.3c-0.1-0.4-0.1-0.8-0.2-1.2c-0.1-0.5-0.1-0.9-0.2-1.4c0-0.5-0.1-0.9-0.1-1.4s0-0.8,0-1.1v-25.5
			h-3.8v10.1c-0.5-0.1-0.9-0.2-1.3-0.4c-0.4-0.1-0.8-0.2-1.3-0.3c-0.4-0.1-0.9-0.1-1.5-0.1c-0.5,0-1.1,0-1.8,0
			c-1.9,0-3.5,0.3-5.1,0.8c-1.5,0.5-2.8,1.3-3.9,2.4c-1.1,1-1.9,2.3-2.5,3.9c-0.6,1.6-0.9,3.4-0.9,5.4c0,4.3,0.9,7.5,2.6,9.5
			c1.7,2,4.4,3.1,8,3.1c1.8,0,3.4-0.4,4.8-1.2c1.4-0.8,2.4-1.8,3.2-3.1h0.2l0.5,3.7h6.5v-3.1H302.8z M298.4,238.7
			c-0.4,2-1.2,3.5-2.3,4.6c-1.1,1-2.7,1.5-4.6,1.5c-1.3,0-2.5-0.2-3.4-0.7c-0.9-0.5-1.7-1.1-2.2-2c-0.6-0.8-1-1.8-1.2-3
			c-0.2-1.1-0.4-2.4-0.4-3.7c0-3.2,0.7-5.6,2.2-7.1c1.5-1.5,3.5-2.2,6.1-2.2c1.4,0,2.6,0.1,3.5,0.3c0.9,0.2,1.7,0.6,2.4,1.1V238.7z"
			/>
		
			<rect x="207.8" y="214.5" transform="matrix(0.7071 -0.7071 0.7071 0.7071 -91.7703 212.0487)" class="st3" width="4.5" height="4.5"/>
		<polygon class="st3" points="212.1,223.3 199.9,223.3 199.9,226.5 208.3,226.5 208.3,244.2 199.9,244.2 199.9,247.4 220.3,247.4 
			220.3,244.2 212.1,244.2 		"/>
		<path class="st3" d="M181.8,226.5l-8.1-12.9H170v33.8h3.9v-25.9l6.4,9.9c0.7,1.1,2.3,1.1,3,0l6.4-9.9v25.9h3.9v-33.8h-3.7
			L181.8,226.5z"/>
		<path class="st3" d="M223,143.5l-23.2-13.4l-13.4-23.2c-2-3.5-7.1-3.5-9.1,0l-13.4,23.2l-23.2,13.4c-3.5,2-3.5,7.1,0,9.1
			l23.2,13.4l13.4,23.2c2,3.5,7.1,3.5,9.1,0l13.4-23.2l23.2-13.4C226.5,150.6,226.5,145.5,223,143.5z M210.2,148.1L210.2,148.1
			l-28.3,28.3v0v0l0,0l0,0v0l-28.3-28.3h0h0l0,0l0,0h0l28.3-28.3v0v0l0,0l0,0v0L210.2,148.1L210.2,148.1L210.2,148.1L210.2,148.1
			L210.2,148.1z"/>
		<polygon class="st3" points="181.8,131.1 181.8,131.1 164.8,148.1 164.8,148.1 181.8,165 181.8,165 198.8,148.1 198.8,148.1 		"/>
	</g>
</g>
</svg>
