<?xml version="1.0" encoding="utf-8"?>
<!-- Generator: Adobe Illustrator 22.0.1, SVG Export Plug-In . SVG Version: 6.00 Build 0)  -->
<svg version="1.1" xmlns="http://www.w3.org/2000/svg" xmlns:xlink="http://www.w3.org/1999/xlink" x="0px" y="0px"
	 viewBox="0 0 360 360" style="enable-background:new 0 0 360 360;" xml:space="preserve">
<style type="text/css">
	.st0{display:none;}
	.st1{display:inline;}
	.st2{display:inline;fill:#323232;}
	.st3{fill:#FFFFFF;}
	.st4{fill:url(#SVGID_1_);}
	.st5{fill:url(#SVGID_2_);}
	.st6{fill:url(#SVGID_3_);}
	.st7{fill:url(#SVGID_4_);}
	.st8{fill:url(#SVGID_5_);}
	.st9{fill:url(#SVGID_6_);}
	.st10{fill:url(#SVGID_7_);}
	.st11{fill:url(#SVGID_8_);}
	.st12{fill:url(#SVGID_10_);}
	.st13{fill:url(#SVGID_11_);}
	.st14{fill:url(#SVGID_12_);}
	.st15{fill:url(#SVGID_13_);}
	.st16{fill:url(#SVGID_14_);}
	.st17{fill:url(#SVGID_15_);}
	.st18{fill:url(#SVGID_16_);}
	.st19{fill:url(#SVGID_18_);}
	.st20{fill:url(#SVGID_20_);}
	.st21{fill:url(#SVGID_21_);}
	.st22{fill:url(#SVGID_22_);}
	.st23{fill:url(#SVGID_23_);}
	.st24{fill:url(#SVGID_24_);}
	.st25{fill:url(#SVGID_25_);}
	.st26{fill:url(#SVGID_26_);}
	.st27{fill:url(#SVGID_28_);}
	.st28{fill:url(#SVGID_29_);}
	.st29{fill:url(#SVGID_30_);}
	.st30{fill:url(#SVGID_31_);}
	.st31{fill:url(#SVGID_32_);}
	.st32{fill:url(#SVGID_33_);}
	.st33{fill:url(#SVGID_34_);}
	.st34{fill:url(#SVGID_35_);}
	.st35{fill:url(#SVGID_36_);}
	.st36{fill:#808080;}
	.st37{fill:url(#SVGID_38_);}
	.st38{fill:url(#SVGID_39_);}
	.st39{fill:url(#SVGID_40_);}
	.st40{fill:url(#SVGID_41_);}
	.st41{fill:url(#SVGID_42_);}
	.st42{fill:url(#SVGID_43_);}
	.st43{fill:url(#SVGID_44_);}
	.st44{fill:url(#SVGID_46_);}
	.st45{fill:url(#SVGID_48_);}
	.st46{fill:url(#SVGID_49_);}
	.st47{fill:url(#SVGID_50_);}
	.st48{fill:url(#SVGID_51_);}
	.st49{fill:url(#SVGID_52_);}
	.st50{fill:url(#SVGID_53_);}
	.st51{fill:url(#SVGID_54_);}
	.st52{fill:url(#SVGID_56_);}
	.st53{fill:url(#SVGID_58_);}
	.st54{fill:url(#SVGID_59_);}
	.st55{fill:url(#SVGID_60_);}
	.st56{fill:url(#SVGID_61_);}
	.st57{fill:url(#SVGID_62_);}
	.st58{fill:url(#SVGID_63_);}
	.st59{fill:url(#SVGID_64_);}
	.st60{fill:url(#SVGID_66_);}
	.st61{fill:url(#SVGID_68_);}
	.st62{fill:url(#SVGID_69_);}
	.st63{fill:url(#SVGID_70_);}
	.st64{fill:url(#SVGID_71_);}
	.st65{fill:url(#SVGID_72_);}
	.st66{fill:url(#SVGID_73_);}
	.st67{fill:url(#SVGID_74_);}
	.st68{fill:url(#SVGID_76_);}
	.st69{fill:url(#SVGID_77_);}
	.st70{fill:url(#SVGID_78_);}
	.st71{fill:url(#SVGID_79_);}
	.st72{fill:url(#SVGID_80_);}
	.st73{fill:url(#SVGID_81_);}
	.st74{fill:url(#SVGID_82_);}
	.st75{fill:url(#SVGID_83_);}
	.st76{fill:url(#SVGID_84_);}
	.st77{fill:url(#SVGID_86_);}
	.st78{fill:url(#SVGID_87_);}
	.st79{clip-path:url(#SVGID_88_);}
	.st80{fill:url(#SVGID_89_);}
	.st81{fill:url(#SVGID_91_);}
	.st82{fill:url(#SVGID_92_);}
	.st83{clip-path:url(#SVGID_94_);}
	.st84{fill:url(#SVGID_95_);}
	.st85{fill:url(#SVGID_98_);}
	.st86{fill:url(#SVGID_99_);}
	.st87{clip-path:url(#SVGID_101_);}
	.st88{fill:url(#SVGID_102_);}
	.st89{fill:url(#SVGID_105_);}
	.st90{fill:url(#SVGID_106_);}
	.st91{clip-path:url(#SVGID_108_);}
	.st92{fill:url(#SVGID_109_);}
	.st93{fill:url(#SVGID_112_);}
	.st94{fill:url(#SVGID_113_);}
	.st95{clip-path:url(#SVGID_115_);}
	.st96{fill:url(#SVGID_116_);}
	.st97{fill:#F2F2F2;}
	.st98{fill:url(#SVGID_119_);}
	.st99{fill:url(#SVGID_120_);}
	.st100{clip-path:url(#SVGID_122_);}
	.st101{fill:url(#SVGID_123_);}
	.st102{opacity:0.7;fill:#FFFFFF;}
	.st103{opacity:0.9;fill:#FFFFFF;}
</style>
<g id="Backgrounds" class="st0">
	<rect class="st1" width="360" height="360"/>
</g>
<g id="Logos">
	<g>
		<g>
			<g>
				<path class="st3" d="M201.6,199.6c-1-0.2-2.2-0.3-3.7-0.3c-1.2,0-2.4,0.2-3.6,0.6s-2.1,1.1-3,2.1c-0.9,1-1.6,2.3-2.1,3.9
					c-0.5,1.6-0.8,3.6-0.8,6c0,4.4,0.8,7.6,2.4,9.7c1.6,2.1,3.9,3.1,7,3.1c1.9,0,3.5-0.4,4.8-1.1v-8.6h-6.4v-3h9.6v13.6
					c-0.5,0.4-1,0.7-1.7,1c-0.7,0.3-1.4,0.5-2.1,0.8c-0.8,0.2-1.5,0.4-2.3,0.5c-0.8,0.1-1.6,0.2-2.4,0.2c-2,0-3.8-0.3-5.3-1
					c-1.6-0.6-2.9-1.6-4-2.9c-1.1-1.3-1.9-3-2.5-5c-0.6-2-0.9-4.4-0.9-7.2c0-2.9,0.4-5.3,1.1-7.4c0.7-2,1.7-3.7,2.9-5
					c1.2-1.3,2.6-2.2,4.2-2.8c1.6-0.6,3.2-0.9,4.8-0.9c1.8,0,3.2,0.1,4.4,0.3c1.2,0.2,2.1,0.5,2.9,0.8l0,0.2v7.4h-3.3V199.6z"/>
				<path class="st3" d="M210.8,227.6v-3h6v-16.2h-6v-3h8.3l0.7,2.9h0.2c1-0.9,2.1-1.7,3.4-2.3c1.2-0.6,2.7-1,4.4-1
					c1,0,1.8,0.2,2.4,0.6c0.6,0.4,1.1,0.9,1.4,1.7c0.3,0.7,0.6,1.6,0.7,2.7c0.1,1,0.2,2.2,0.2,3.6l-3.1,0c0-1.9-0.2-3.3-0.6-4.1
					c-0.4-0.9-1-1.3-2-1.3c-0.9,0-1.7,0.1-2.5,0.4c-0.7,0.3-1.4,0.6-1.9,1c-0.5,0.4-1,0.8-1.4,1.1c-0.4,0.4-0.7,0.7-0.8,1v13h8.5v3
					H210.8z"/>
				<g>
					<path class="st3" d="M278.1,224.7c-0.1-0.3-0.1-0.7-0.2-1.1c-0.1-0.4-0.1-0.9-0.2-1.3c0-0.4-0.1-0.9-0.1-1.3c0-0.4,0-0.7,0-1
						v-23.4h-3.5v9.3c-0.4-0.1-0.8-0.2-1.2-0.3c-0.4-0.1-0.8-0.2-1.2-0.2c-0.4-0.1-0.9-0.1-1.3-0.1c-0.5,0-1,0-1.7,0
						c-1.7,0-3.3,0.3-4.6,0.8c-1.4,0.5-2.6,1.2-3.6,2.2c-1,1-1.7,2.2-2.3,3.6c-0.5,1.4-0.8,3.1-0.8,4.9c0,4,0.8,6.9,2.4,8.8
						c1.6,1.9,4,2.8,7.4,2.8c1.7,0,3.2-0.4,4.4-1.1c1.3-0.8,2.2-1.7,2.9-2.8h0.2l0.4,3.4h5.9v-2.9H278.1z M274.1,219.5
						c-0.4,1.9-1.1,3.3-2.1,4.2c-1,0.9-2.4,1.4-4.2,1.4c-1.2,0-2.3-0.2-3.1-0.7s-1.5-1-2.1-1.8c-0.5-0.8-0.9-1.7-1.1-2.7
						c-0.2-1-0.3-2.2-0.3-3.4c0-3,0.7-5.1,2-6.5c1.4-1.4,3.2-2.1,5.6-2.1c1.3,0,2.4,0.1,3.2,0.3c0.8,0.2,1.5,0.5,2.2,1V219.5z"/>
				</g>
				<path class="st3" d="M236.5,227.6v-3h7.7v-16.2h-7.7v-3h11.2v19.2h7.5v3H236.5z M248.8,199.4l-2.9-2.9l-2.9,2.9l2.9,2.9
					L248.8,199.4z"/>
				<g>
					<path class="st3" d="M78.9,212.1c0-5.1,0.9-9.1,2.7-11.8c1.8-2.8,4.6-4.2,8.4-4.2c2.1,0,3.8,0.4,5.2,1.1
						c1.4,0.8,2.6,1.8,3.5,3.2c0.9,1.4,1.5,3.1,1.9,5c0.4,2,0.6,4.1,0.6,6.6c0,5.1-0.9,9.1-2.7,11.8c-1.8,2.8-4.6,4.2-8.4,4.2
						c-2,0-3.7-0.4-5.2-1.1c-1.4-0.8-2.6-1.8-3.4-3.2c-0.9-1.4-1.5-3.1-1.9-5C79.1,216.7,78.9,214.5,78.9,212.1z M82.7,212.1
						c0,1.7,0.1,3.3,0.3,4.9c0.2,1.5,0.6,2.9,1.2,4c0.6,1.2,1.3,2.1,2.2,2.8c0.9,0.7,2.1,1,3.5,1c2.5,0,4.4-1,5.6-3.1
						c1.2-2.1,1.8-5.3,1.8-9.6c0-1.7-0.1-3.3-0.3-4.8c-0.2-1.5-0.6-2.9-1.2-4.1c-0.6-1.2-1.3-2.1-2.3-2.8c-0.9-0.7-2.1-1-3.5-1
						c-2.5,0-4.3,1-5.5,3.1C83.3,204.5,82.7,207.7,82.7,212.1z"/>
					<path class="st3" d="M107.5,213.2c0-0.3,0-0.6,0-1c0-0.4,0-0.9-0.1-1.3c0-0.5-0.1-0.9-0.1-1.3c0-0.4-0.1-0.8-0.2-1.1h-3v-2.9
						h5.9l0.4,3.1h0.2c0.8-1,1.8-1.9,3-2.6c1.2-0.7,2.7-1,4.5-1c3.2,0,5.5,0.9,7.1,2.6c1.6,1.7,2.4,4.6,2.4,8.5c0,1.9-0.3,3.5-0.8,5
						c-0.5,1.5-1.3,2.7-2.3,3.8c-1,1-2.2,1.8-3.6,2.4c-1.4,0.6-3,0.8-4.7,0.8c-0.6,0-1.2,0-1.7-0.1c-0.5,0-0.9-0.1-1.3-0.2
						c-0.4-0.1-0.8-0.2-1.2-0.3c-0.4-0.1-0.8-0.3-1.2-0.4v8.1h-3.4V213.2z M117.7,208.2c-0.9,0-1.7,0.2-2.5,0.5
						c-0.8,0.3-1.5,0.7-2.1,1.3c-0.6,0.5-1.1,1.1-1.5,1.8c-0.4,0.6-0.6,1.3-0.7,1.9v10c0.6,0.4,1.4,0.8,2.2,1
						c0.8,0.2,1.9,0.4,3.2,0.4c2.4,0,4.2-0.8,5.7-2.3c1.4-1.5,2.1-3.8,2.1-6.8c0-2.5-0.5-4.4-1.5-5.8
						C121.6,208.9,120,208.2,117.7,208.2z"/>
					<path class="st3" d="M152.3,224.7c-0.5,0.5-1.2,0.9-1.9,1.3c-0.7,0.4-1.5,0.8-2.4,1.1c-0.9,0.3-1.7,0.5-2.7,0.7
						c-0.9,0.2-1.9,0.2-2.8,0.2c-1.8,0-3.3-0.3-4.7-0.8c-1.4-0.5-2.5-1.3-3.4-2.3c-0.9-1-1.6-2.2-2.1-3.6c-0.5-1.4-0.7-3-0.7-4.8
						c0-1.9,0.3-3.5,0.8-4.9c0.5-1.4,1.3-2.7,2.2-3.6c1-1,2.1-1.7,3.5-2.2c1.4-0.5,2.9-0.8,4.6-0.8c1.2,0,2.5,0.2,3.7,0.5
						c1.2,0.3,2.3,0.9,3.2,1.8c0.9,0.9,1.6,2.1,2.1,3.7c0.5,1.6,0.7,3.6,0.5,6.1h-17.1c0,2.7,0.7,4.6,2.1,5.9c1.4,1.3,3.3,2,5.7,2
						c0.8,0,1.6-0.1,2.4-0.3c0.8-0.2,1.5-0.4,2.2-0.7c0.7-0.3,1.3-0.6,1.9-0.9c0.5-0.3,1-0.6,1.3-0.9L152.3,224.7z M143,207.8
						c-1,0-1.9,0.1-2.8,0.3c-0.9,0.2-1.6,0.6-2.3,1c-0.7,0.5-1.2,1.1-1.6,1.9c-0.4,0.8-0.7,1.7-0.8,2.9h13.7
						c-0.1-1.9-0.8-3.5-1.9-4.5C146.3,208.4,144.8,207.8,143,207.8z"/>
					<path class="st3" d="M159,213.2c0-0.3,0-0.6,0-1c0-0.4,0-0.9-0.1-1.3c0-0.5-0.1-0.9-0.1-1.3c0-0.4-0.1-0.8-0.2-1.1h-3v-2.9h5.9
						l0.4,3.6h0.2c0.3-0.5,0.7-1,1.2-1.5s1.1-0.9,1.7-1.3c0.6-0.4,1.4-0.7,2.2-0.9c0.8-0.2,1.6-0.4,2.5-0.4c1.4,0,2.6,0.1,3.6,0.4
						c1,0.3,1.9,0.8,2.6,1.6c0.7,0.8,1.2,1.8,1.6,3c0.4,1.3,0.5,2.9,0.5,4.9v12.7h-3.5v-12c0-2.4-0.4-4.3-1.2-5.5
						c-0.8-1.2-2.2-1.9-4.3-1.9c-0.8,0-1.5,0.2-2.2,0.5c-0.7,0.3-1.4,0.7-2,1.2c-0.6,0.5-1.1,1.1-1.5,1.7c-0.4,0.7-0.8,1.4-1,2.1
						v13.8H159V213.2z"/>
				</g>
				<g>
					<g>
						<g>
							<path class="st3" d="M186.8,241.5c0-0.7,0.1-1.4,0.2-2c0.1-0.6,0.4-1.1,0.6-1.5s0.6-0.7,1.1-0.9c0.4-0.2,0.9-0.3,1.5-0.3
								c0.6,0,1.2,0.1,1.6,0.4c0.4,0.2,0.8,0.6,1.1,1s0.5,0.9,0.6,1.5c0.1,0.6,0.2,1.2,0.2,1.9c0,1.5-0.3,2.7-0.9,3.5
								c-0.6,0.8-1.4,1.3-2.6,1.3c-0.6,0-1.2-0.1-1.6-0.4c-0.4-0.2-0.8-0.6-1.1-1c-0.3-0.4-0.5-0.9-0.6-1.5
								C186.9,242.9,186.8,242.2,186.8,241.5z M188.7,241.5c0,0.4,0,0.9,0.1,1.2c0,0.4,0.1,0.7,0.2,1c0.1,0.3,0.3,0.5,0.5,0.7
								c0.2,0.2,0.5,0.2,0.8,0.2c0.3,0,0.6-0.1,0.8-0.2c0.2-0.1,0.4-0.3,0.5-0.6c0.1-0.3,0.2-0.6,0.3-1c0-0.4,0.1-0.9,0.1-1.4
								c0-0.4,0-0.8,0-1.2c0-0.4-0.1-0.7-0.2-1s-0.3-0.5-0.5-0.7c-0.2-0.2-0.5-0.3-0.8-0.3c-0.6,0-1,0.3-1.2,0.8
								C188.8,239.7,188.7,240.5,188.7,241.5z"/>
							<path class="st3" d="M194.7,239.6h2.2l0.2,0.8h0.1c0.5-0.6,1.2-1,2.2-1c0.4,0,0.8,0.1,1.1,0.2c0.3,0.1,0.6,0.3,0.9,0.6
								s0.4,0.6,0.6,1c0.1,0.4,0.2,0.9,0.2,1.5c0,0.6-0.1,1.1-0.2,1.5c-0.1,0.4-0.4,0.8-0.6,1.1c-0.3,0.3-0.6,0.6-1,0.7
								s-0.9,0.2-1.4,0.2c-0.3,0-0.5,0-0.8-0.1c-0.3,0-0.5-0.1-0.7-0.2v2.7h-1.7V241h-1V239.6z M198.8,240.8c-0.3,0-0.6,0.1-0.9,0.2
								c-0.3,0.2-0.5,0.4-0.6,0.7v2.7c0.1,0.1,0.3,0.2,0.5,0.2c0.2,0.1,0.5,0.1,0.7,0.1c0.2,0,0.5,0,0.7-0.1
								c0.2-0.1,0.4-0.2,0.5-0.4c0.2-0.2,0.3-0.4,0.4-0.7c0.1-0.3,0.1-0.6,0.1-1c0-0.6-0.1-1-0.4-1.3
								C199.6,241,199.2,240.8,198.8,240.8z"/>
							<path class="st3" d="M209.5,245.4c-0.1,0.1-0.3,0.2-0.4,0.3c-0.2,0.1-0.4,0.2-0.6,0.3c-0.2,0.1-0.5,0.2-0.8,0.2
								c-0.3,0.1-0.6,0.1-0.9,0.1c-0.6,0-1.1-0.1-1.5-0.2c-0.4-0.2-0.8-0.4-1.1-0.7c-0.3-0.3-0.5-0.7-0.7-1.1
								c-0.2-0.4-0.2-0.9-0.2-1.4c0-0.6,0.1-1.1,0.3-1.5c0.2-0.4,0.4-0.8,0.8-1.1c0.3-0.3,0.7-0.5,1.1-0.6c0.4-0.1,0.9-0.2,1.4-0.2
								c0.3,0,0.7,0,1,0.1c0.4,0.1,0.7,0.2,1,0.5c0.3,0.2,0.5,0.5,0.7,0.9c0.2,0.4,0.3,0.8,0.3,1.4c0,0.4,0,0.8-0.1,1.2h-4.7
								c0,0.3,0.1,0.5,0.2,0.7c0.1,0.2,0.3,0.3,0.4,0.5c0.2,0.1,0.4,0.2,0.6,0.3c0.2,0.1,0.5,0.1,0.7,0.1c0.5,0,1-0.1,1.3-0.2
								c0.3-0.1,0.6-0.3,0.8-0.4L209.5,245.4z M206.7,240.8c-0.2,0-0.4,0-0.6,0.1c-0.2,0.1-0.4,0.2-0.5,0.3s-0.3,0.3-0.4,0.4
								c-0.1,0.2-0.2,0.4-0.2,0.6h3.2c0-0.4-0.1-0.8-0.4-1C207.5,240.9,207.1,240.8,206.7,240.8z"/>
							<path class="st3" d="M210.7,239.6h2.3l0.2,0.9h0.1c0.2-0.3,0.5-0.5,0.9-0.7c0.4-0.2,0.8-0.3,1.3-0.3c0.3,0,0.6,0,0.9,0.1
								c0.3,0.1,0.5,0.2,0.7,0.4c0.2,0.2,0.4,0.5,0.5,0.8c0.1,0.3,0.2,0.8,0.2,1.3v4.1h-1.7v-3.7c0-0.5-0.1-0.9-0.4-1.1
								c-0.2-0.2-0.5-0.4-0.9-0.4c-0.3,0-0.6,0.1-0.9,0.3c-0.3,0.2-0.4,0.4-0.5,0.7v4.2h-1.7V241h-0.9V239.6z"/>
							<path class="st3" d="M224.7,241.2l0.1-1.4h-0.1l-1.5,2.4h-0.3l-1.5-2.4h-0.1l0.1,1.3v5h-1.7V237h1.8l1.6,2.5h0.1l1.6-2.5h1.8
								v9.1h-1.8V241.2z"/>
							<path class="st3" d="M228.1,244.7h2.3V241h-2.3v-1.4h4v5.1h2.4v1.4h-6.4V244.7z"/>
							<path class="st3" d="M235,239.6h2.3l0.2,0.9h0.1c0.2-0.3,0.5-0.5,0.9-0.7c0.4-0.2,0.8-0.3,1.3-0.3c0.3,0,0.6,0,0.9,0.1
								c0.3,0.1,0.5,0.2,0.7,0.4c0.2,0.2,0.4,0.5,0.5,0.8c0.1,0.3,0.2,0.8,0.2,1.3v4.1h-1.7v-3.7c0-0.5-0.1-0.9-0.4-1.1
								c-0.2-0.2-0.5-0.4-0.9-0.4c-0.3,0-0.6,0.1-0.9,0.3c-0.3,0.2-0.4,0.4-0.5,0.7v4.2H236V241H235V239.6z"/>
							<path class="st3" d="M249.6,245.4c-0.1,0.1-0.3,0.2-0.4,0.3c-0.2,0.1-0.4,0.2-0.6,0.3c-0.2,0.1-0.5,0.2-0.8,0.2
								c-0.3,0.1-0.6,0.1-0.9,0.1c-0.6,0-1.1-0.1-1.5-0.2c-0.4-0.2-0.8-0.4-1.1-0.7c-0.3-0.3-0.5-0.7-0.7-1.1
								c-0.2-0.4-0.2-0.9-0.2-1.4c0-0.6,0.1-1.1,0.3-1.5c0.2-0.4,0.4-0.8,0.7-1.1c0.3-0.3,0.7-0.5,1.1-0.6c0.4-0.1,0.9-0.2,1.4-0.2
								c0.3,0,0.7,0,1,0.1c0.4,0.1,0.7,0.2,1,0.5c0.3,0.2,0.5,0.5,0.7,0.9c0.2,0.4,0.3,0.8,0.3,1.4c0,0.4,0,0.8-0.1,1.2H245
								c0,0.3,0.1,0.5,0.2,0.7c0.1,0.2,0.3,0.3,0.4,0.5c0.2,0.1,0.4,0.2,0.6,0.3c0.2,0.1,0.5,0.1,0.7,0.1c0.5,0,0.9-0.1,1.3-0.2
								c0.3-0.1,0.6-0.3,0.8-0.4L249.6,245.4z M246.8,240.8c-0.2,0-0.4,0-0.6,0.1c-0.2,0.1-0.4,0.2-0.5,0.3
								c-0.2,0.1-0.3,0.3-0.4,0.4c-0.1,0.2-0.2,0.4-0.2,0.6h3.2c0-0.4-0.1-0.8-0.4-1C247.7,240.9,247.3,240.8,246.8,240.8z"/>
							<path class="st3" d="M257.5,237v5.6c0,0.7,0,1.3,0.1,1.9c0,0,0,0.1,0,0.1h0.8v1.4h-2.1l-0.2-0.8h-0.1
								c-0.1,0.2-0.2,0.3-0.4,0.4c-0.1,0.1-0.3,0.2-0.5,0.3c-0.2,0.1-0.4,0.2-0.6,0.2c-0.2,0-0.4,0.1-0.7,0.1
								c-0.4,0-0.8-0.1-1.2-0.2c-0.4-0.1-0.7-0.3-0.9-0.6c-0.3-0.3-0.5-0.6-0.6-1c-0.2-0.4-0.2-0.9-0.2-1.5c0-0.6,0.1-1.1,0.3-1.5
								c0.2-0.4,0.4-0.8,0.7-1.1c0.3-0.3,0.7-0.5,1.1-0.7c0.4-0.2,0.9-0.2,1.3-0.2c0.3,0,0.5,0,0.8,0c0.2,0,0.4,0.1,0.6,0.2V237
								H257.5z M254.4,244.9c0.3,0,0.6-0.1,0.9-0.2c0.3-0.2,0.4-0.4,0.5-0.7v-2.8c-0.1-0.1-0.3-0.2-0.5-0.2c-0.2,0-0.4-0.1-0.7-0.1
								c-0.2,0-0.5,0-0.7,0.1c-0.2,0.1-0.4,0.2-0.6,0.4c-0.2,0.2-0.3,0.4-0.4,0.7c-0.1,0.3-0.2,0.6-0.2,1c0,0.6,0.1,1,0.4,1.3
								S253.9,244.9,254.4,244.9z"/>
							
								<rect x="230.4" y="236.8" transform="matrix(0.7071 0.7071 -0.7071 0.7071 235.7385 -93.8742)" class="st3" width="1.6" height="1.6"/>
						</g>
					</g>
					<g>
						<path class="st3" d="M115.6,246.1v-6.5h2.7c0.7,0,1.3,0.2,1.7,0.6c0.4,0.4,0.5,0.9,0.5,1.4c0,0.5-0.2,1-0.6,1.4
							c-0.4,0.4-0.9,0.6-1.6,0.6h-1.6v2.5H115.6z M118.3,242.6c0.3,0,0.6-0.1,0.7-0.3c0.2-0.2,0.2-0.4,0.2-0.7
							c0-0.2-0.1-0.5-0.2-0.7c-0.2-0.2-0.4-0.3-0.7-0.3h-1.6v1.9H118.3z"/>
						<path class="st3" d="M124.9,246.2c-0.4,0-0.8-0.1-1.1-0.2c-0.3-0.1-0.6-0.3-0.8-0.5c-0.2-0.2-0.4-0.5-0.5-0.8
							c-0.1-0.3-0.3-0.6-0.3-0.9c-0.1-0.3-0.1-0.6-0.1-1c0-0.3,0-0.7,0.1-1c0.1-0.3,0.2-0.6,0.3-0.9c0.1-0.3,0.3-0.5,0.5-0.8
							c0.2-0.2,0.5-0.4,0.8-0.5c0.3-0.1,0.7-0.2,1.1-0.2c0.5,0,0.9,0.1,1.3,0.3c0.4,0.2,0.7,0.5,0.9,0.8c0.2,0.3,0.4,0.7,0.5,1.1
							c0.1,0.4,0.2,0.8,0.2,1.2s-0.1,0.8-0.2,1.2c-0.1,0.4-0.3,0.7-0.5,1.1c-0.2,0.3-0.5,0.6-0.9,0.8
							C125.9,246.1,125.4,246.2,124.9,246.2z M124.9,245.1c0.3,0,0.6-0.1,0.8-0.2c0.2-0.1,0.4-0.3,0.5-0.6c0.1-0.2,0.2-0.5,0.3-0.7
							c0.1-0.3,0.1-0.5,0.1-0.8c0-0.3,0-0.6-0.1-0.8c-0.1-0.3-0.2-0.5-0.3-0.7c-0.1-0.2-0.3-0.4-0.5-0.5c-0.2-0.1-0.5-0.2-0.8-0.2
							c-0.4,0-0.7,0.1-1,0.4c-0.3,0.3-0.5,0.5-0.6,0.9c-0.1,0.3-0.2,0.7-0.2,1.1c0,0.3,0,0.5,0.1,0.8c0.1,0.3,0.2,0.5,0.3,0.7
							c0.1,0.2,0.3,0.4,0.5,0.5C124.4,245.1,124.6,245.1,124.9,245.1z"/>
						<path class="st3" d="M130.8,246.1l-1.4-6.5h1.1l0.8,3.8c0.1,0.4,0.1,0.6,0.1,0.6c0-0.1,0.1-0.3,0.1-0.6l1-3.8h0.9l1,3.8
							c0.1,0.2,0.1,0.4,0.1,0.6c0-0.2,0.1-0.4,0.1-0.6l0.8-3.8h1.1l-1.4,6.5h-1l-1.1-4c-0.1-0.2-0.1-0.4-0.1-0.6
							c0,0.1-0.1,0.3-0.1,0.6l-1,4H130.8z"/>
						<path class="st3" d="M138.6,246.1v-6.5h4.2v1.1h-3.1v1.6h1.9v1.1h-1.9v1.8h3.3v1.1H138.6z"/>
						<path class="st3" d="M145.2,246.1v-6.5h2.9c0.7,0,1.3,0.2,1.6,0.6c0.3,0.4,0.5,0.8,0.5,1.4c0,0.4-0.1,0.8-0.3,1.1
							c-0.2,0.4-0.6,0.6-1,0.7l1.3,2.7h-1.3l-1.3-2.5h-1.4v2.5H145.2z M146.3,242.5h1.8c0.3,0,0.6-0.1,0.7-0.3
							c0.2-0.2,0.2-0.4,0.2-0.7c0-0.3-0.1-0.5-0.2-0.7c-0.1-0.2-0.4-0.3-0.7-0.3h-1.8V242.5z"/>
						<path class="st3" d="M152.5,246.1v-6.5h4.2v1.1h-3.1v1.6h1.9v1.1h-1.9v1.8h3.3v1.1H152.5z"/>
						<path class="st3" d="M159.1,239.6h2c0.4,0,0.8,0.1,1.2,0.2c0.4,0.1,0.7,0.3,0.9,0.5c0.2,0.2,0.4,0.4,0.6,0.7
							c0.2,0.3,0.3,0.6,0.3,0.9c0.1,0.3,0.1,0.6,0.1,1c0,0.3,0,0.6-0.1,0.9c-0.1,0.3-0.2,0.6-0.3,0.9c-0.2,0.3-0.4,0.5-0.6,0.8
							c-0.2,0.2-0.5,0.4-0.9,0.5c-0.4,0.1-0.8,0.2-1.2,0.2h-2V239.6z M161.3,245.1c0.3,0,0.6-0.1,0.9-0.2c0.3-0.1,0.4-0.3,0.6-0.5
							c0.1-0.2,0.2-0.5,0.3-0.7s0.1-0.5,0.1-0.8c0-0.6-0.1-1.1-0.4-1.6c-0.3-0.4-0.7-0.6-1.3-0.6h-1.1v4.4H161.3z"/>
						<path class="st3" d="M169.8,239.6h2.7c0.7,0,1.3,0.2,1.6,0.5c0.3,0.3,0.5,0.7,0.5,1.2c0,0.6-0.3,1.1-0.8,1.3
							c0.4,0.1,0.6,0.3,0.8,0.6c0.2,0.3,0.3,0.6,0.3,0.9c0,0.5-0.2,1-0.5,1.4c-0.4,0.4-0.9,0.6-1.6,0.6h-2.8V239.6z M172.3,242.2
							c0.4,0,0.6-0.1,0.8-0.2c0.2-0.1,0.3-0.3,0.3-0.6c0-0.5-0.3-0.8-0.9-0.8h-1.6v1.6H172.3z M172.6,245.1c0.3,0,0.6-0.1,0.7-0.3
							c0.2-0.2,0.2-0.4,0.2-0.6c0-0.6-0.4-1-1.2-1h-1.5v1.8H172.6z"/>
						<path class="st3" d="M178.6,246.1v-2.5l-2.3-4h1.3l1.6,2.8l1.6-2.8h1.3l-2.4,4v2.5H178.6z"/>
					</g>
				</g>
			</g>
		</g>
		<g>
			<path class="st3" d="M162.7,121.3l-12.6,7.3l12.6,7.3l12.6-7.3L162.7,121.3z M197.3,121.3l-12.6,7.3l12.6,7.3l12.6-7.3
				L197.3,121.3z M180,111.3l-12.6,7.3l12.6,7.3l12.6-7.3L180,111.3z"/>
			<path class="st3" d="M199.6,139.9v14.5l12.6-7.3v-14.6L199.6,139.9z M182.3,169.8v14.5l12.6-7.3v-14.5L182.3,169.8z M199.6,159.8
				l0,14.5l12.6-7.3v-14.5L199.6,159.8z"/>
			<polygon class="st3" points="194.9,139.5 194.9,156.8 180,165.4 165.1,156.8 165.1,139.5 165.1,139.5 180,130.9 			"/>
			<path class="st3" d="M165.1,162.5l0,14.5l12.6,7.3v-14.5L165.1,162.5z M147.8,132.6v14.5l12.6,7.3v-14.5L147.8,132.6z
				 M147.8,152.6v14.5l12.6,7.3v-14.5L147.8,152.6z"/>
		</g>
	</g>
</g>
</svg>
