<?xml version="1.0" encoding="utf-8"?>
<!-- Generator: Adobe Illustrator 22.0.1, SVG Export Plug-In . SVG Version: 6.00 Build 0)  -->
<svg version="1.1" xmlns="http://www.w3.org/2000/svg" xmlns:xlink="http://www.w3.org/1999/xlink" x="0px" y="0px"
	 viewBox="0 0 360 360" style="enable-background:new 0 0 360 360;" xml:space="preserve">
<style type="text/css">
	.st0{display:none;}
	.st1{display:inline;}
	.st2{display:inline;fill:#323232;}
	.st3{fill:#FFFFFF;}
	.st4{fill:url(#SVGID_1_);}
	.st5{fill:url(#SVGID_2_);}
	.st6{fill:url(#SVGID_3_);}
	.st7{fill:url(#SVGID_4_);}
	.st8{fill:url(#SVGID_5_);}
	.st9{fill:url(#SVGID_6_);}
	.st10{fill:url(#SVGID_7_);}
	.st11{fill:url(#SVGID_8_);}
	.st12{fill:url(#SVGID_10_);}
	.st13{fill:url(#SVGID_11_);}
	.st14{fill:url(#SVGID_12_);}
	.st15{fill:url(#SVGID_13_);}
	.st16{fill:url(#SVGID_14_);}
	.st17{fill:url(#SVGID_15_);}
	.st18{fill:url(#SVGID_16_);}
	.st19{fill:url(#SVGID_18_);}
	.st20{fill:url(#SVGID_20_);}
	.st21{fill:url(#SVGID_21_);}
	.st22{fill:url(#SVGID_22_);}
	.st23{fill:url(#SVGID_23_);}
	.st24{fill:url(#SVGID_24_);}
	.st25{fill:url(#SVGID_25_);}
	.st26{fill:url(#SVGID_26_);}
	.st27{fill:url(#SVGID_28_);}
	.st28{fill:url(#SVGID_29_);}
	.st29{fill:url(#SVGID_30_);}
	.st30{fill:url(#SVGID_31_);}
	.st31{fill:url(#SVGID_32_);}
	.st32{fill:url(#SVGID_33_);}
	.st33{fill:url(#SVGID_34_);}
	.st34{fill:url(#SVGID_35_);}
	.st35{fill:url(#SVGID_36_);}
	.st36{fill:#808080;}
	.st37{fill:url(#SVGID_38_);}
	.st38{fill:url(#SVGID_39_);}
	.st39{fill:url(#SVGID_40_);}
	.st40{fill:url(#SVGID_41_);}
	.st41{fill:url(#SVGID_42_);}
	.st42{fill:url(#SVGID_43_);}
	.st43{fill:url(#SVGID_44_);}
	.st44{fill:url(#SVGID_46_);}
	.st45{fill:url(#SVGID_48_);}
	.st46{fill:url(#SVGID_49_);}
	.st47{fill:url(#SVGID_50_);}
	.st48{fill:url(#SVGID_51_);}
	.st49{fill:url(#SVGID_52_);}
	.st50{fill:url(#SVGID_53_);}
	.st51{fill:url(#SVGID_54_);}
	.st52{fill:url(#SVGID_56_);}
	.st53{fill:url(#SVGID_58_);}
	.st54{fill:url(#SVGID_59_);}
	.st55{fill:url(#SVGID_60_);}
	.st56{fill:url(#SVGID_61_);}
	.st57{fill:url(#SVGID_62_);}
	.st58{fill:url(#SVGID_63_);}
	.st59{fill:url(#SVGID_64_);}
	.st60{fill:url(#SVGID_66_);}
	.st61{fill:url(#SVGID_68_);}
	.st62{fill:url(#SVGID_69_);}
	.st63{fill:url(#SVGID_70_);}
	.st64{fill:url(#SVGID_71_);}
	.st65{fill:url(#SVGID_72_);}
	.st66{fill:url(#SVGID_73_);}
	.st67{fill:url(#SVGID_74_);}
	.st68{fill:url(#SVGID_76_);}
	.st69{fill:url(#SVGID_77_);}
	.st70{fill:url(#SVGID_78_);}
	.st71{fill:url(#SVGID_79_);}
	.st72{fill:url(#SVGID_80_);}
	.st73{fill:url(#SVGID_81_);}
	.st74{fill:url(#SVGID_82_);}
	.st75{fill:url(#SVGID_83_);}
	.st76{fill:url(#SVGID_84_);}
	.st77{fill:url(#SVGID_86_);}
	.st78{fill:url(#SVGID_87_);}
	.st79{clip-path:url(#SVGID_88_);}
	.st80{fill:url(#SVGID_89_);}
	.st81{fill:url(#SVGID_91_);}
	.st82{fill:url(#SVGID_92_);}
	.st83{clip-path:url(#SVGID_94_);}
	.st84{fill:url(#SVGID_95_);}
	.st85{fill:url(#SVGID_98_);}
	.st86{fill:url(#SVGID_99_);}
	.st87{clip-path:url(#SVGID_101_);}
	.st88{fill:url(#SVGID_102_);}
	.st89{fill:url(#SVGID_105_);}
	.st90{fill:url(#SVGID_106_);}
	.st91{clip-path:url(#SVGID_108_);}
	.st92{fill:url(#SVGID_109_);}
	.st93{fill:url(#SVGID_112_);}
	.st94{fill:url(#SVGID_113_);}
	.st95{clip-path:url(#SVGID_115_);}
	.st96{fill:url(#SVGID_116_);}
	.st97{fill:#F2F2F2;}
	.st98{fill:url(#SVGID_119_);}
	.st99{fill:url(#SVGID_120_);}
	.st100{clip-path:url(#SVGID_122_);}
	.st101{fill:url(#SVGID_123_);}
	.st102{opacity:0.7;fill:#FFFFFF;}
	.st103{opacity:0.9;fill:#FFFFFF;}
</style>
<g id="Backgrounds" class="st0">
</g>
<g id="Logos">
	<g>
		<g>
			<g>
				<path d="M250.4,208.9c0-0.7,0.1-1.4,0.2-2c0.1-0.6,0.4-1.1,0.6-1.5c0.3-0.4,0.6-0.7,1.1-0.9c0.4-0.2,0.9-0.3,1.5-0.3
					c0.6,0,1.2,0.1,1.6,0.4c0.4,0.2,0.8,0.6,1.1,1s0.5,0.9,0.6,1.5c0.1,0.6,0.2,1.2,0.2,1.9c0,1.5-0.3,2.7-0.9,3.5
					c-0.6,0.8-1.4,1.3-2.6,1.3c-0.6,0-1.2-0.1-1.6-0.4c-0.4-0.2-0.8-0.6-1.1-1c-0.3-0.4-0.5-0.9-0.6-1.5
					C250.5,210.2,250.4,209.6,250.4,208.9z M252.3,208.9c0,0.4,0,0.9,0.1,1.2c0,0.4,0.1,0.7,0.2,1c0.1,0.3,0.3,0.5,0.5,0.7
					c0.2,0.2,0.5,0.2,0.8,0.2c0.3,0,0.6-0.1,0.8-0.2c0.2-0.1,0.4-0.3,0.5-0.6c0.1-0.3,0.2-0.6,0.3-1c0-0.4,0.1-0.9,0.1-1.4
					c0-0.4,0-0.8,0-1.2c0-0.4-0.1-0.7-0.2-1s-0.3-0.5-0.5-0.7c-0.2-0.2-0.5-0.3-0.8-0.3c-0.6,0-1,0.3-1.2,0.8
					C252.4,207,252.3,207.8,252.3,208.9z"/>
				<path d="M258.3,206.9h2.2l0.2,0.8h0.1c0.5-0.6,1.2-1,2.2-1c0.4,0,0.8,0.1,1.1,0.2c0.3,0.1,0.6,0.3,0.9,0.6
					c0.2,0.3,0.4,0.6,0.6,1c0.1,0.4,0.2,0.9,0.2,1.5c0,0.6-0.1,1.1-0.2,1.5c-0.1,0.4-0.4,0.8-0.6,1.1c-0.3,0.3-0.6,0.6-1,0.7
					s-0.9,0.2-1.4,0.2c-0.3,0-0.5,0-0.8-0.1c-0.3,0-0.5-0.1-0.7-0.2v2.7h-1.7v-7.7h-1V206.9z M262.5,208.2c-0.3,0-0.6,0.1-0.9,0.2
					c-0.3,0.2-0.5,0.4-0.6,0.7v2.7c0.1,0.1,0.3,0.2,0.5,0.2c0.2,0.1,0.5,0.1,0.7,0.1c0.2,0,0.5,0,0.7-0.1c0.2-0.1,0.4-0.2,0.5-0.4
					c0.2-0.2,0.3-0.4,0.4-0.7c0.1-0.3,0.1-0.6,0.1-1c0-0.6-0.1-1-0.4-1.3C263.3,208.3,262.9,208.2,262.5,208.2z"/>
				<path d="M273.1,212.7c-0.1,0.1-0.3,0.2-0.4,0.3c-0.2,0.1-0.4,0.2-0.6,0.3s-0.5,0.2-0.8,0.2c-0.3,0.1-0.6,0.1-0.9,0.1
					c-0.6,0-1.1-0.1-1.5-0.2c-0.4-0.2-0.8-0.4-1.1-0.7c-0.3-0.3-0.5-0.7-0.7-1.1c-0.2-0.4-0.2-0.9-0.2-1.4c0-0.6,0.1-1.1,0.3-1.5
					c0.2-0.4,0.4-0.8,0.8-1.1c0.3-0.3,0.7-0.5,1.1-0.6c0.4-0.1,0.9-0.2,1.4-0.2c0.3,0,0.7,0,1,0.1c0.4,0.1,0.7,0.2,1,0.5
					c0.3,0.2,0.5,0.5,0.7,0.9c0.2,0.4,0.3,0.8,0.3,1.4c0,0.4,0,0.8-0.1,1.2h-4.7c0,0.3,0.1,0.5,0.2,0.7c0.1,0.2,0.3,0.3,0.4,0.5
					c0.2,0.1,0.4,0.2,0.6,0.3c0.2,0.1,0.5,0.1,0.7,0.1c0.5,0,1-0.1,1.3-0.2c0.3-0.1,0.6-0.3,0.8-0.4L273.1,212.7z M270.3,208.1
					c-0.2,0-0.4,0-0.6,0.1c-0.2,0.1-0.4,0.2-0.5,0.3c-0.2,0.1-0.3,0.3-0.4,0.4c-0.1,0.2-0.2,0.4-0.2,0.6h3.2c0-0.4-0.1-0.8-0.4-1
					C271.2,208.2,270.8,208.1,270.3,208.1z"/>
				<path d="M274.4,206.9h2.3l0.2,0.9h0.1c0.2-0.3,0.5-0.5,0.9-0.7c0.4-0.2,0.8-0.3,1.3-0.3c0.3,0,0.6,0,0.9,0.1
					c0.3,0.1,0.5,0.2,0.7,0.4c0.2,0.2,0.4,0.5,0.5,0.8c0.1,0.3,0.2,0.8,0.2,1.3v4.1h-1.7v-3.7c0-0.5-0.1-0.9-0.4-1.1
					c-0.2-0.2-0.5-0.4-0.9-0.4c-0.3,0-0.6,0.1-0.9,0.3c-0.3,0.2-0.4,0.4-0.5,0.7v4.2h-1.7v-5.1h-0.9V206.9z"/>
				<path d="M288.4,208.6l0.1-1.4h-0.1l-1.5,2.4h-0.3l-1.5-2.4H285l0.1,1.3v5h-1.7v-9.1h1.8l1.6,2.5h0.1l1.6-2.5h1.8v9.1h-1.8V208.6
					z"/>
				<path d="M291.7,212h2.3v-3.7h-2.3v-1.4h4v5.1h2.4v1.4h-6.4V212z"/>
				<path d="M298.7,206.9h2.3l0.2,0.9h0.1c0.2-0.3,0.5-0.5,0.9-0.7c0.4-0.2,0.8-0.3,1.3-0.3c0.3,0,0.6,0,0.9,0.1
					c0.3,0.1,0.5,0.2,0.7,0.4c0.2,0.2,0.4,0.5,0.5,0.8c0.1,0.3,0.2,0.8,0.2,1.3v4.1H304v-3.7c0-0.5-0.1-0.9-0.4-1.1
					c-0.2-0.2-0.5-0.4-0.9-0.4c-0.3,0-0.6,0.1-0.9,0.3c-0.3,0.2-0.4,0.4-0.5,0.7v4.2h-1.7v-5.1h-0.9V206.9z"/>
				<path d="M313.3,212.7c-0.1,0.1-0.3,0.2-0.4,0.3c-0.2,0.1-0.4,0.2-0.6,0.3c-0.2,0.1-0.5,0.2-0.8,0.2c-0.3,0.1-0.6,0.1-0.9,0.1
					c-0.6,0-1.1-0.1-1.5-0.2c-0.4-0.2-0.8-0.4-1.1-0.7c-0.3-0.3-0.5-0.7-0.7-1.1c-0.2-0.4-0.2-0.9-0.2-1.4c0-0.6,0.1-1.1,0.3-1.5
					c0.2-0.4,0.4-0.8,0.7-1.1c0.3-0.3,0.7-0.5,1.1-0.6c0.4-0.1,0.9-0.2,1.4-0.2c0.3,0,0.7,0,1,0.1c0.4,0.1,0.7,0.2,1,0.5
					c0.3,0.2,0.5,0.5,0.7,0.9c0.2,0.4,0.3,0.8,0.3,1.4c0,0.4,0,0.8-0.1,1.2h-4.7c0,0.3,0.1,0.5,0.2,0.7c0.1,0.2,0.3,0.3,0.4,0.5
					c0.2,0.1,0.4,0.2,0.6,0.3c0.2,0.1,0.5,0.1,0.7,0.1c0.5,0,0.9-0.1,1.3-0.2c0.3-0.1,0.6-0.3,0.8-0.4L313.3,212.7z M310.5,208.1
					c-0.2,0-0.4,0-0.6,0.1c-0.2,0.1-0.4,0.2-0.5,0.3c-0.2,0.1-0.3,0.3-0.4,0.4c-0.1,0.2-0.2,0.4-0.2,0.6h3.2c0-0.4-0.1-0.8-0.4-1
					C311.3,208.2,311,208.1,310.5,208.1z"/>
				<path d="M321.1,204.3v5.6c0,0.7,0,1.3,0.1,1.9c0,0,0,0.1,0,0.1h0.8v1.4H320l-0.2-0.8h-0.1c-0.1,0.2-0.2,0.3-0.4,0.4
					c-0.1,0.1-0.3,0.2-0.5,0.3c-0.2,0.1-0.4,0.2-0.6,0.2c-0.2,0-0.4,0.1-0.7,0.1c-0.4,0-0.8-0.1-1.2-0.2c-0.4-0.1-0.7-0.3-0.9-0.6
					s-0.5-0.6-0.6-1c-0.2-0.4-0.2-0.9-0.2-1.5c0-0.6,0.1-1.1,0.3-1.5c0.2-0.4,0.4-0.8,0.7-1.1c0.3-0.3,0.7-0.5,1.1-0.7
					c0.4-0.2,0.9-0.2,1.3-0.2c0.3,0,0.5,0,0.8,0c0.2,0,0.4,0.1,0.6,0.2v-2.6H321.1z M318.1,212.2c0.3,0,0.6-0.1,0.9-0.2
					c0.3-0.2,0.4-0.4,0.5-0.7v-2.8c-0.1-0.1-0.3-0.2-0.5-0.2c-0.2,0-0.4-0.1-0.7-0.1c-0.2,0-0.5,0-0.7,0.1c-0.2,0.1-0.4,0.2-0.6,0.4
					c-0.2,0.2-0.3,0.4-0.4,0.7c-0.1,0.3-0.2,0.6-0.2,1c0,0.6,0.1,1,0.4,1.3C317.1,212,317.5,212.2,318.1,212.2z"/>
				<rect x="294" y="204.1" transform="matrix(0.7071 0.7071 -0.7071 0.7071 231.2737 -148.4544)" width="1.6" height="1.6"/>
			</g>
		</g>
		<path d="M244.5,168.9c-1-0.2-2.2-0.3-3.7-0.3c-1.2,0-2.4,0.2-3.6,0.6s-2.1,1.1-3,2.1c-0.9,1-1.6,2.3-2.1,3.9
			c-0.5,1.6-0.8,3.6-0.8,6c0,4.4,0.8,7.6,2.4,9.7c1.6,2.1,3.9,3.1,7,3.1c1.9,0,3.5-0.4,4.8-1.1v-8.6h-6.4v-3h9.6v13.6
			c-0.5,0.4-1,0.7-1.7,1c-0.7,0.3-1.4,0.5-2.1,0.8c-0.8,0.2-1.5,0.4-2.3,0.5c-0.8,0.1-1.6,0.2-2.4,0.2c-2,0-3.8-0.3-5.3-1
			c-1.6-0.6-2.9-1.6-4-2.9c-1.1-1.3-1.9-3-2.5-5c-0.6-2-0.9-4.4-0.9-7.2c0-2.9,0.4-5.3,1.1-7.4c0.7-2,1.7-3.7,2.9-5
			c1.2-1.3,2.6-2.2,4.2-2.8c1.6-0.6,3.2-0.9,4.8-0.9c1.8,0,3.2,0.1,4.4,0.3c1.2,0.2,2.1,0.5,2.9,0.8l0,0.2v7.4h-3.3V168.9z"/>
		<path d="M253.7,196.9v-3h6v-16.2h-6v-3h8.3l0.7,2.9h0.2c1-0.9,2.1-1.7,3.4-2.3c1.2-0.6,2.7-1,4.4-1c1,0,1.8,0.2,2.4,0.6
			c0.6,0.4,1.1,0.9,1.4,1.7c0.3,0.7,0.6,1.6,0.7,2.7c0.1,1,0.2,2.2,0.2,3.6l-3.1,0c0-1.9-0.2-3.3-0.6-4.1c-0.4-0.9-1-1.3-2-1.3
			c-0.9,0-1.7,0.1-2.5,0.4c-0.7,0.3-1.4,0.6-1.9,1c-0.5,0.4-1,0.8-1.4,1.1c-0.4,0.4-0.7,0.7-0.8,1v13h8.5v3H253.7z"/>
		<g>
			<path d="M321,194c-0.1-0.3-0.1-0.7-0.2-1.1c-0.1-0.4-0.1-0.9-0.2-1.3c0-0.4-0.1-0.9-0.1-1.3c0-0.4,0-0.7,0-1v-23.4H317v9.3
				c-0.4-0.1-0.8-0.2-1.2-0.3c-0.4-0.1-0.8-0.2-1.2-0.2c-0.4-0.1-0.9-0.1-1.3-0.1c-0.5,0-1,0-1.7,0c-1.7,0-3.3,0.3-4.6,0.8
				c-1.4,0.5-2.6,1.2-3.6,2.2c-1,1-1.7,2.2-2.3,3.6c-0.5,1.4-0.8,3.1-0.8,4.9c0,4,0.8,6.9,2.4,8.8c1.6,1.9,4,2.8,7.4,2.8
				c1.7,0,3.2-0.4,4.4-1.1c1.3-0.8,2.2-1.7,2.9-2.8h0.2l0.4,3.4h5.9V194H321z M317,188.9c-0.4,1.9-1.1,3.3-2.1,4.2
				c-1,0.9-2.4,1.4-4.2,1.4c-1.2,0-2.3-0.2-3.1-0.7c-0.9-0.4-1.5-1-2.1-1.8c-0.5-0.8-0.9-1.7-1.1-2.7c-0.2-1-0.3-2.2-0.3-3.4
				c0-3,0.7-5.1,2-6.5c1.4-1.4,3.2-2.1,5.6-2.1c1.3,0,2.4,0.1,3.2,0.3c0.8,0.2,1.5,0.5,2.2,1V188.9z"/>
		</g>
		<path d="M279.4,196.9v-3h7.7v-16.2h-7.7v-3h11.2v19.2h7.5v3H279.4z M291.7,168.8l-2.9-2.9l-2.9,2.9l2.9,2.9L291.7,168.8z"/>
		<g>
			<path d="M121.8,181.4c0-5.1,0.9-9.1,2.7-11.8c1.8-2.8,4.6-4.2,8.4-4.2c2.1,0,3.8,0.4,5.2,1.1c1.4,0.8,2.6,1.8,3.5,3.2
				c0.9,1.4,1.5,3.1,1.9,5c0.4,2,0.6,4.1,0.6,6.6c0,5.1-0.9,9.1-2.7,11.8c-1.8,2.8-4.6,4.2-8.4,4.2c-2,0-3.7-0.4-5.2-1.1
				c-1.4-0.8-2.6-1.8-3.4-3.2c-0.9-1.4-1.5-3.1-1.9-5C122,186,121.8,183.8,121.8,181.4z M125.6,181.4c0,1.7,0.1,3.3,0.3,4.9
				c0.2,1.5,0.6,2.9,1.2,4c0.6,1.2,1.3,2.1,2.2,2.8c0.9,0.7,2.1,1,3.5,1c2.5,0,4.4-1,5.6-3.1c1.2-2.1,1.8-5.3,1.8-9.6
				c0-1.7-0.1-3.3-0.3-4.8c-0.2-1.5-0.6-2.9-1.2-4.1c-0.6-1.2-1.3-2.1-2.3-2.8c-0.9-0.7-2.1-1-3.5-1c-2.5,0-4.3,1-5.5,3.1
				S125.6,177.1,125.6,181.4z"/>
			<path d="M150.4,182.5c0-0.3,0-0.6,0-1c0-0.4,0-0.9-0.1-1.3c0-0.5-0.1-0.9-0.1-1.3c0-0.4-0.1-0.8-0.2-1.1h-3v-2.9h5.9l0.4,3.1h0.2
				c0.8-1,1.8-1.9,3-2.6c1.2-0.7,2.7-1,4.5-1c3.2,0,5.5,0.9,7.1,2.6c1.6,1.7,2.4,4.6,2.4,8.5c0,1.9-0.3,3.5-0.8,5
				c-0.5,1.5-1.3,2.7-2.3,3.8c-1,1-2.2,1.8-3.6,2.4c-1.4,0.6-3,0.8-4.7,0.8c-0.6,0-1.2,0-1.7-0.1c-0.5,0-0.9-0.1-1.3-0.2
				c-0.4-0.1-0.8-0.2-1.2-0.3c-0.4-0.1-0.8-0.3-1.2-0.4v8.1h-3.4V182.5z M160.6,177.5c-0.9,0-1.7,0.2-2.5,0.5
				c-0.8,0.3-1.5,0.7-2.1,1.3c-0.6,0.5-1.1,1.1-1.5,1.8c-0.4,0.6-0.6,1.3-0.7,1.9v10c0.6,0.4,1.4,0.8,2.2,1c0.8,0.2,1.9,0.4,3.2,0.4
				c2.4,0,4.2-0.8,5.7-2.3c1.4-1.5,2.1-3.8,2.1-6.8c0-2.5-0.5-4.4-1.5-5.8C164.5,178.2,162.9,177.5,160.6,177.5z"/>
			<path d="M195.2,194.1c-0.5,0.5-1.2,0.9-1.9,1.3c-0.7,0.4-1.5,0.8-2.4,1.1c-0.9,0.3-1.7,0.5-2.7,0.7c-0.9,0.2-1.9,0.2-2.8,0.2
				c-1.8,0-3.3-0.3-4.7-0.8c-1.4-0.5-2.5-1.3-3.4-2.3c-0.9-1-1.6-2.2-2.1-3.6c-0.5-1.4-0.7-3-0.7-4.8c0-1.9,0.3-3.5,0.8-4.9
				c0.5-1.4,1.3-2.7,2.2-3.6c1-1,2.1-1.7,3.5-2.2c1.4-0.5,2.9-0.8,4.6-0.8c1.2,0,2.5,0.2,3.7,0.5c1.2,0.3,2.3,0.9,3.2,1.8
				c0.9,0.9,1.6,2.1,2.1,3.7c0.5,1.6,0.7,3.6,0.5,6.1h-17.1c0,2.7,0.7,4.6,2.1,5.9c1.4,1.3,3.3,2,5.7,2c0.8,0,1.6-0.1,2.4-0.3
				c0.8-0.2,1.5-0.4,2.2-0.7c0.7-0.3,1.3-0.6,1.9-0.9c0.5-0.3,1-0.6,1.3-0.9L195.2,194.1z M185.9,177.1c-1,0-1.9,0.1-2.8,0.3
				c-0.9,0.2-1.6,0.6-2.3,1c-0.7,0.5-1.2,1.1-1.6,1.9c-0.4,0.8-0.7,1.7-0.8,2.9h13.7c-0.1-1.9-0.8-3.5-1.9-4.5
				C189.2,177.7,187.7,177.1,185.9,177.1z"/>
			<path d="M201.9,182.5c0-0.3,0-0.6,0-1c0-0.4,0-0.9-0.1-1.3c0-0.5-0.1-0.9-0.1-1.3c0-0.4-0.1-0.8-0.2-1.1h-3v-2.9h5.9l0.4,3.6h0.2
				c0.3-0.5,0.7-1,1.2-1.5s1.1-0.9,1.7-1.3c0.6-0.4,1.4-0.7,2.2-0.9c0.8-0.2,1.6-0.4,2.5-0.4c1.4,0,2.6,0.1,3.6,0.4
				c1,0.3,1.9,0.8,2.6,1.6c0.7,0.8,1.2,1.8,1.6,3c0.4,1.3,0.5,2.9,0.5,4.9v12.7h-3.5v-12c0-2.4-0.4-4.3-1.2-5.5
				c-0.8-1.2-2.2-1.9-4.3-1.9c-0.8,0-1.5,0.2-2.2,0.5c-0.7,0.3-1.4,0.7-2,1.2c-0.6,0.5-1.1,1.1-1.5,1.7c-0.4,0.7-0.8,1.4-1,2.1v13.8
				h-3.4V182.5z"/>
		</g>
		<g>
			<path d="M179.2,213.4v-6.5h2.7c0.7,0,1.3,0.2,1.7,0.6c0.4,0.4,0.5,0.9,0.5,1.4c0,0.5-0.2,1-0.6,1.4s-0.9,0.6-1.6,0.6h-1.6v2.5
				H179.2z M182,209.9c0.3,0,0.6-0.1,0.7-0.3c0.2-0.2,0.2-0.4,0.2-0.7c0-0.2-0.1-0.5-0.2-0.7c-0.2-0.2-0.4-0.3-0.7-0.3h-1.6v1.9H182
				z"/>
			<path d="M188.6,213.5c-0.4,0-0.8-0.1-1.1-0.2c-0.3-0.1-0.6-0.3-0.8-0.5c-0.2-0.2-0.4-0.5-0.5-0.8c-0.1-0.3-0.3-0.6-0.3-0.9
				s-0.1-0.6-0.1-1c0-0.3,0-0.7,0.1-1c0.1-0.3,0.2-0.6,0.3-0.9c0.1-0.3,0.3-0.5,0.5-0.8c0.2-0.2,0.5-0.4,0.8-0.5
				c0.3-0.1,0.7-0.2,1.1-0.2c0.5,0,0.9,0.1,1.3,0.3c0.4,0.2,0.7,0.5,0.9,0.8c0.2,0.3,0.4,0.7,0.5,1.1c0.1,0.4,0.2,0.8,0.2,1.2
				s-0.1,0.8-0.2,1.2c-0.1,0.4-0.3,0.7-0.5,1.1c-0.2,0.3-0.5,0.6-0.9,0.8C189.5,213.4,189.1,213.5,188.6,213.5z M188.6,212.5
				c0.3,0,0.6-0.1,0.8-0.2c0.2-0.1,0.4-0.3,0.5-0.6c0.1-0.2,0.2-0.5,0.3-0.7c0.1-0.3,0.1-0.5,0.1-0.8c0-0.3,0-0.6-0.1-0.8
				c-0.1-0.3-0.2-0.5-0.3-0.7c-0.1-0.2-0.3-0.4-0.5-0.5c-0.2-0.1-0.5-0.2-0.8-0.2c-0.4,0-0.7,0.1-1,0.4c-0.3,0.3-0.5,0.5-0.6,0.9
				c-0.1,0.3-0.2,0.7-0.2,1.1c0,0.3,0,0.5,0.1,0.8c0.1,0.3,0.2,0.5,0.3,0.7c0.1,0.2,0.3,0.4,0.5,0.5
				C188,212.4,188.3,212.5,188.6,212.5z"/>
			<path d="M194.5,213.4l-1.4-6.5h1.1l0.8,3.8c0.1,0.4,0.1,0.6,0.1,0.6c0-0.1,0.1-0.3,0.1-0.6l1-3.8h0.9l1,3.8
				c0.1,0.2,0.1,0.4,0.1,0.6c0-0.2,0.1-0.4,0.1-0.6l0.8-3.8h1.1l-1.4,6.5h-1l-1.1-4c-0.1-0.2-0.1-0.4-0.1-0.6c0,0.1-0.1,0.3-0.1,0.6
				l-1,4H194.5z"/>
			<path d="M202.2,213.4v-6.5h4.2v1.1h-3.1v1.6h1.9v1.1h-1.9v1.8h3.3v1.1H202.2z"/>
			<path d="M208.9,213.4v-6.5h2.9c0.7,0,1.3,0.2,1.6,0.6c0.3,0.4,0.5,0.8,0.5,1.4c0,0.4-0.1,0.8-0.3,1.1c-0.2,0.4-0.6,0.6-1,0.7
				l1.3,2.7h-1.3l-1.3-2.5H210v2.5H208.9z M210,209.8h1.8c0.3,0,0.6-0.1,0.7-0.3c0.2-0.2,0.2-0.4,0.2-0.7c0-0.3-0.1-0.5-0.2-0.7
				c-0.1-0.2-0.4-0.3-0.7-0.3H210V209.8z"/>
			<path d="M216.2,213.4v-6.5h4.2v1.1h-3.1v1.6h1.9v1.1h-1.9v1.8h3.3v1.1H216.2z"/>
			<path d="M222.8,206.9h2c0.4,0,0.8,0.1,1.2,0.2c0.4,0.1,0.7,0.3,0.9,0.5c0.2,0.2,0.4,0.4,0.6,0.7c0.2,0.3,0.3,0.6,0.3,0.9
				c0.1,0.3,0.1,0.6,0.1,1c0,0.3,0,0.6-0.1,0.9c-0.1,0.3-0.2,0.6-0.3,0.9c-0.2,0.3-0.4,0.5-0.6,0.8c-0.2,0.2-0.5,0.4-0.9,0.5
				c-0.4,0.1-0.8,0.2-1.2,0.2h-2V206.9z M224.9,212.4c0.3,0,0.6-0.1,0.9-0.2c0.3-0.1,0.4-0.3,0.6-0.5c0.1-0.2,0.2-0.5,0.3-0.7
				c0.1-0.2,0.1-0.5,0.1-0.8c0-0.6-0.1-1.1-0.4-1.6c-0.3-0.4-0.7-0.6-1.3-0.6h-1.1v4.4H224.9z"/>
			<path d="M233.4,206.9h2.7c0.7,0,1.3,0.2,1.6,0.5c0.3,0.3,0.5,0.7,0.5,1.2c0,0.6-0.3,1.1-0.8,1.3c0.4,0.1,0.6,0.3,0.8,0.6
				c0.2,0.3,0.3,0.6,0.3,0.9c0,0.5-0.2,1-0.5,1.4c-0.4,0.4-0.9,0.6-1.6,0.6h-2.8V206.9z M235.9,209.5c0.4,0,0.6-0.1,0.8-0.2
				c0.2-0.1,0.3-0.3,0.3-0.6c0-0.5-0.3-0.8-0.9-0.8h-1.6v1.6H235.9z M236.3,212.4c0.3,0,0.6-0.1,0.7-0.3c0.2-0.2,0.2-0.4,0.2-0.6
				c0-0.6-0.4-1-1.2-1h-1.5v1.8H236.3z"/>
			<path d="M242.3,213.4v-2.5l-2.3-4h1.3l1.6,2.8l1.6-2.8h1.3l-2.4,4v2.5H242.3z"/>
		</g>
	</g>
	<path d="M50.9,153.5l-12.6,7.3l12.6,7.3l12.6-7.3L50.9,153.5z M85.5,153.5l-12.6,7.3l12.6,7.3l12.6-7.3L85.5,153.5z M68.2,143.5
		l-12.6,7.3l12.6,7.3l12.6-7.3L68.2,143.5z"/>
	<path d="M87.8,172.1v14.5l12.6-7.3v-14.5L87.8,172.1z M70.6,202l0,14.5l12.6-7.3v-14.5L70.6,202z M87.8,192v14.5l12.6-7.3v-14.5
		L87.8,192z"/>
	<polygon points="83.1,171.7 83.1,188.9 68.2,197.6 53.3,188.9 53.3,171.7 68.2,163.1 	"/>
	<path d="M53.3,194.7v14.5l12.6,7.3V202L53.3,194.7z M36,164.8v14.5l12.6,7.3v-14.5L36,164.8z M36,184.7v14.5l12.6,7.3V192L36,184.7
		z"/>
</g>
</svg>
