<?xml version="1.0" encoding="utf-8"?>
<!-- Generator: Adobe Illustrator 22.0.1, SVG Export Plug-In . SVG Version: 6.00 Build 0)  -->
<svg version="1.1" xmlns="http://www.w3.org/2000/svg" xmlns:xlink="http://www.w3.org/1999/xlink" x="0px" y="0px"
	 viewBox="0 0 360 360" style="enable-background:new 0 0 360 360;" xml:space="preserve">
<style type="text/css">
	.st0{display:none;}
	.st1{display:inline;}
	.st2{display:inline;fill:#323232;}
	.st3{fill:#FFFFFF;}
	.st4{fill:url(#SVGID_1_);}
	.st5{fill:url(#SVGID_2_);}
	.st6{fill:url(#SVGID_3_);}
	.st7{fill:url(#SVGID_4_);}
	.st8{fill:url(#SVGID_5_);}
	.st9{fill:url(#SVGID_6_);}
	.st10{fill:url(#SVGID_7_);}
	.st11{fill:url(#SVGID_8_);}
	.st12{fill:url(#SVGID_10_);}
	.st13{fill:url(#SVGID_11_);}
	.st14{fill:url(#SVGID_12_);}
	.st15{fill:url(#SVGID_13_);}
	.st16{fill:url(#SVGID_14_);}
	.st17{fill:url(#SVGID_15_);}
	.st18{fill:url(#SVGID_16_);}
	.st19{fill:url(#SVGID_18_);}
	.st20{fill:url(#SVGID_20_);}
	.st21{fill:url(#SVGID_21_);}
	.st22{fill:url(#SVGID_22_);}
	.st23{fill:url(#SVGID_23_);}
	.st24{fill:url(#SVGID_24_);}
	.st25{fill:url(#SVGID_25_);}
	.st26{fill:url(#SVGID_26_);}
	.st27{fill:url(#SVGID_28_);}
	.st28{fill:url(#SVGID_29_);}
	.st29{fill:url(#SVGID_30_);}
	.st30{fill:url(#SVGID_31_);}
	.st31{fill:url(#SVGID_32_);}
	.st32{fill:url(#SVGID_33_);}
	.st33{fill:url(#SVGID_34_);}
	.st34{fill:url(#SVGID_35_);}
	.st35{fill:url(#SVGID_36_);}
	.st36{fill:#808080;}
	.st37{fill:url(#SVGID_38_);}
	.st38{fill:url(#SVGID_39_);}
	.st39{fill:url(#SVGID_40_);}
	.st40{fill:url(#SVGID_41_);}
	.st41{fill:url(#SVGID_42_);}
	.st42{fill:url(#SVGID_43_);}
	.st43{fill:url(#SVGID_44_);}
	.st44{fill:url(#SVGID_46_);}
	.st45{fill:url(#SVGID_48_);}
	.st46{fill:url(#SVGID_49_);}
	.st47{fill:url(#SVGID_50_);}
	.st48{fill:url(#SVGID_51_);}
	.st49{fill:url(#SVGID_52_);}
	.st50{fill:url(#SVGID_53_);}
	.st51{fill:url(#SVGID_54_);}
	.st52{fill:url(#SVGID_56_);}
	.st53{fill:url(#SVGID_58_);}
	.st54{fill:url(#SVGID_59_);}
	.st55{fill:url(#SVGID_60_);}
	.st56{fill:url(#SVGID_61_);}
	.st57{fill:url(#SVGID_62_);}
	.st58{fill:url(#SVGID_63_);}
	.st59{fill:url(#SVGID_64_);}
	.st60{fill:url(#SVGID_66_);}
	.st61{fill:url(#SVGID_68_);}
	.st62{fill:url(#SVGID_69_);}
	.st63{fill:url(#SVGID_70_);}
	.st64{fill:url(#SVGID_71_);}
	.st65{fill:url(#SVGID_72_);}
	.st66{fill:url(#SVGID_73_);}
	.st67{fill:url(#SVGID_74_);}
	.st68{fill:url(#SVGID_76_);}
	.st69{fill:url(#SVGID_77_);}
	.st70{fill:url(#SVGID_78_);}
	.st71{fill:url(#SVGID_79_);}
	.st72{fill:url(#SVGID_80_);}
	.st73{fill:url(#SVGID_81_);}
	.st74{fill:url(#SVGID_82_);}
	.st75{fill:url(#SVGID_83_);}
	.st76{fill:url(#SVGID_84_);}
	.st77{fill:url(#SVGID_86_);}
	.st78{fill:url(#SVGID_87_);}
	.st79{clip-path:url(#SVGID_88_);}
	.st80{fill:url(#SVGID_89_);}
	.st81{fill:url(#SVGID_91_);}
	.st82{fill:url(#SVGID_92_);}
	.st83{clip-path:url(#SVGID_94_);}
	.st84{fill:url(#SVGID_95_);}
	.st85{fill:url(#SVGID_98_);}
	.st86{fill:url(#SVGID_99_);}
	.st87{clip-path:url(#SVGID_101_);}
	.st88{fill:url(#SVGID_102_);}
	.st89{fill:url(#SVGID_105_);}
	.st90{fill:url(#SVGID_106_);}
	.st91{clip-path:url(#SVGID_108_);}
	.st92{fill:url(#SVGID_109_);}
	.st93{fill:url(#SVGID_112_);}
	.st94{fill:url(#SVGID_113_);}
	.st95{clip-path:url(#SVGID_115_);}
	.st96{fill:url(#SVGID_116_);}
	.st97{fill:#F2F2F2;}
	.st98{fill:url(#SVGID_119_);}
	.st99{fill:url(#SVGID_120_);}
	.st100{clip-path:url(#SVGID_122_);}
	.st101{fill:url(#SVGID_123_);}
	.st102{opacity:0.7;fill:#FFFFFF;}
	.st103{opacity:0.9;fill:#FFFFFF;}
</style>
<g id="Backgrounds" class="st0">
</g>
<g id="Logos">
	<g>
		<g>
			<g>
				<g>
					<path d="M214.3,202.7c0-0.9,0.1-1.8,0.3-2.5c0.2-0.7,0.4-1.4,0.8-1.9s0.8-0.9,1.3-1.2c0.5-0.3,1.2-0.4,1.9-0.4
						c0.8,0,1.4,0.1,2,0.4c0.5,0.3,1,0.7,1.3,1.2c0.3,0.5,0.6,1.1,0.7,1.9c0.2,0.7,0.2,1.5,0.2,2.4c0,1.9-0.4,3.3-1.1,4.3
						c-0.7,1-1.8,1.6-3.2,1.6c-0.8,0-1.4-0.1-2-0.4c-0.5-0.3-1-0.7-1.3-1.2c-0.3-0.5-0.6-1.1-0.7-1.9
						C214.4,204.3,214.3,203.5,214.3,202.7z M216.7,202.7c0,0.6,0,1.1,0.1,1.5c0,0.5,0.1,0.9,0.3,1.2c0.1,0.4,0.3,0.6,0.6,0.8
						c0.3,0.2,0.6,0.3,1,0.3c0.4,0,0.7-0.1,0.9-0.2c0.2-0.2,0.4-0.4,0.6-0.7c0.2-0.3,0.3-0.7,0.3-1.2c0.1-0.5,0.1-1.1,0.1-1.7
						c0-0.5,0-1-0.1-1.5c0-0.5-0.1-0.9-0.3-1.3c-0.1-0.4-0.3-0.6-0.6-0.9c-0.3-0.2-0.6-0.3-1-0.3c-0.8,0-1.3,0.3-1.5,1
						C216.8,200.4,216.7,201.4,216.7,202.7z"/>
					<path d="M224.2,200.2h2.8l0.2,1h0.1c0.6-0.8,1.5-1.2,2.7-1.2c0.5,0,1,0.1,1.4,0.2c0.4,0.2,0.8,0.4,1.1,0.7
						c0.3,0.3,0.5,0.8,0.7,1.3c0.2,0.5,0.2,1.1,0.2,1.8c0,0.7-0.1,1.3-0.3,1.9c-0.2,0.6-0.4,1-0.8,1.4c-0.3,0.4-0.8,0.7-1.3,0.9
						c-0.5,0.2-1.1,0.3-1.7,0.3c-0.3,0-0.7,0-1-0.1c-0.3,0-0.6-0.1-0.8-0.2v3.3h-2.1V202h-1.2V200.2z M229.3,201.8
						c-0.4,0-0.8,0.1-1.1,0.3c-0.3,0.2-0.6,0.5-0.7,0.9v3.4c0.2,0.1,0.4,0.2,0.7,0.3c0.3,0.1,0.6,0.1,0.9,0.1c0.3,0,0.6-0.1,0.8-0.2
						c0.3-0.1,0.5-0.3,0.7-0.5c0.2-0.2,0.3-0.5,0.5-0.9c0.1-0.3,0.2-0.8,0.2-1.3c0-0.7-0.2-1.3-0.5-1.7
						C230.3,202,229.9,201.8,229.3,201.8z"/>
					<path d="M242.6,207.5c-0.1,0.1-0.3,0.3-0.5,0.4c-0.2,0.1-0.5,0.2-0.8,0.3c-0.3,0.1-0.6,0.2-1,0.3c-0.4,0.1-0.7,0.1-1.1,0.1
						c-0.7,0-1.3-0.1-1.9-0.3c-0.5-0.2-1-0.5-1.4-0.9c-0.4-0.4-0.7-0.8-0.9-1.3c-0.2-0.5-0.3-1.1-0.3-1.8c0-0.7,0.1-1.3,0.3-1.9
						c0.2-0.5,0.5-1,0.9-1.3c0.4-0.4,0.9-0.6,1.4-0.8c0.5-0.2,1.1-0.3,1.7-0.3c0.4,0,0.8,0.1,1.3,0.2c0.4,0.1,0.8,0.3,1.2,0.6
						c0.4,0.3,0.7,0.6,0.9,1.1c0.2,0.4,0.3,1,0.3,1.7c0,0.5-0.1,1-0.2,1.5h-5.9c0,0.3,0.1,0.6,0.2,0.9c0.1,0.2,0.3,0.4,0.5,0.6
						c0.2,0.2,0.5,0.3,0.8,0.3c0.3,0.1,0.6,0.1,0.9,0.1c0.7,0,1.2-0.1,1.6-0.2c0.4-0.2,0.8-0.3,1-0.6L242.6,207.5z M239.1,201.7
						c-0.3,0-0.5,0-0.8,0.1c-0.2,0.1-0.5,0.2-0.7,0.3s-0.4,0.3-0.5,0.6c-0.1,0.2-0.2,0.5-0.2,0.7h4c0-0.5-0.1-1-0.4-1.3
						C240.1,201.8,239.7,201.7,239.1,201.7z"/>
					<path d="M244.2,200.2h2.8l0.2,1.1h0.1c0.2-0.3,0.6-0.7,1.1-0.9c0.5-0.3,1-0.4,1.7-0.4c0.4,0,0.8,0.1,1.1,0.2
						c0.4,0.1,0.7,0.3,0.9,0.5c0.2,0.2,0.4,0.6,0.6,1c0.1,0.4,0.2,1,0.2,1.6v5.1h-2.1v-4.6c0-0.7-0.1-1.1-0.4-1.4
						c-0.3-0.3-0.7-0.4-1.1-0.4c-0.4,0-0.8,0.1-1.1,0.3c-0.3,0.2-0.6,0.5-0.7,0.9v5.3h-2.1V202h-1.2V200.2z"/>
					<path d="M261.6,202.3l0.1-1.8h-0.1l-1.8,3h-0.4l-1.9-3h-0.1l0.1,1.6v6.2h-2.1V197h2.3l2,3.2h0.1l1.9-3.2h2.2v11.4h-2.2V202.3z"
						/>
					<path d="M265.8,206.6h2.9V202h-2.9v-1.8h5v6.3h3v1.8h-8V206.6z"/>
					<path d="M274.4,200.2h2.8l0.2,1.1h0.1c0.2-0.3,0.6-0.7,1.1-0.9c0.5-0.3,1-0.4,1.7-0.4c0.4,0,0.8,0.1,1.1,0.2
						c0.4,0.1,0.7,0.3,0.9,0.5c0.2,0.2,0.4,0.6,0.6,1c0.1,0.4,0.2,1,0.2,1.6v5.1h-2.1v-4.6c0-0.7-0.1-1.1-0.4-1.4
						c-0.3-0.3-0.7-0.4-1.1-0.4c-0.4,0-0.8,0.1-1.1,0.3c-0.3,0.2-0.6,0.5-0.7,0.9v5.3h-2.1V202h-1.2V200.2z"/>
					<path d="M292.7,207.5c-0.1,0.1-0.3,0.3-0.5,0.4c-0.2,0.1-0.5,0.2-0.8,0.3c-0.3,0.1-0.6,0.2-1,0.3c-0.4,0.1-0.7,0.1-1.1,0.1
						c-0.7,0-1.3-0.1-1.9-0.3c-0.5-0.2-1-0.5-1.4-0.9c-0.4-0.4-0.7-0.8-0.9-1.3c-0.2-0.5-0.3-1.1-0.3-1.8c0-0.7,0.1-1.3,0.3-1.9
						c0.2-0.5,0.5-1,0.9-1.3c0.4-0.4,0.9-0.6,1.4-0.8c0.5-0.2,1.1-0.3,1.7-0.3c0.4,0,0.8,0.1,1.3,0.2c0.4,0.1,0.8,0.3,1.2,0.6
						c0.4,0.3,0.7,0.6,0.9,1.1c0.2,0.4,0.3,1,0.3,1.7c0,0.5-0.1,1-0.2,1.5h-5.9c0,0.3,0.1,0.6,0.2,0.9c0.1,0.2,0.3,0.4,0.5,0.6
						c0.2,0.2,0.5,0.3,0.8,0.3c0.3,0.1,0.6,0.1,0.9,0.1c0.6,0,1.2-0.1,1.6-0.2c0.4-0.2,0.8-0.3,1-0.6L292.7,207.5z M289.2,201.7
						c-0.3,0-0.5,0-0.8,0.1c-0.2,0.1-0.5,0.2-0.7,0.3c-0.2,0.1-0.4,0.3-0.5,0.6c-0.1,0.2-0.2,0.5-0.2,0.7h4c0-0.5-0.1-1-0.4-1.3
						C290.2,201.8,289.8,201.7,289.2,201.7z"/>
					<path d="M302.4,197v7c0,0.8,0,1.6,0.1,2.4c0,0.1,0,0.1,0,0.2h1v1.8H301l-0.2-1h-0.1c-0.1,0.2-0.3,0.4-0.4,0.5
						c-0.2,0.2-0.4,0.3-0.6,0.4c-0.2,0.1-0.5,0.2-0.7,0.3c-0.3,0.1-0.5,0.1-0.8,0.1c-0.5,0-1-0.1-1.4-0.2s-0.8-0.4-1.2-0.8
						c-0.3-0.3-0.6-0.8-0.8-1.3c-0.2-0.5-0.3-1.1-0.3-1.9c0-0.7,0.1-1.3,0.3-1.9c0.2-0.5,0.5-1,0.9-1.4c0.4-0.4,0.8-0.7,1.3-0.9
						c0.5-0.2,1.1-0.3,1.7-0.3c0.3,0,0.7,0,1,0.1c0.3,0,0.6,0.1,0.8,0.2V197H302.4z M298.6,206.8c0.4,0,0.8-0.1,1.1-0.3
						c0.3-0.2,0.5-0.5,0.6-0.9v-3.4c-0.2-0.1-0.4-0.2-0.6-0.3c-0.3-0.1-0.5-0.1-0.8-0.1c-0.3,0-0.6,0-0.9,0.1
						c-0.3,0.1-0.5,0.3-0.7,0.5c-0.2,0.2-0.4,0.5-0.5,0.8s-0.2,0.7-0.2,1.2c0,0.7,0.2,1.3,0.5,1.7S297.9,206.8,298.6,206.8z"/>
					<rect x="268.7" y="196.8" transform="matrix(0.7071 0.7071 -0.7071 0.7071 218.8303 -132.7471)" width="2" height="2"/>
				</g>
			</g>
			<path d="M206.9,152.9c-1.3-0.3-2.8-0.4-4.6-0.4c-1.6,0-3,0.3-4.5,0.8c-1.4,0.5-2.7,1.4-3.8,2.7c-1.1,1.3-2,2.9-2.6,4.9
				c-0.6,2-1,4.5-1,7.5c0,5.4,1,9.5,3,12c2,2.6,4.9,3.9,8.7,3.9c2.4,0,4.4-0.5,6-1.4v-10.8h-8v-3.7h11.9v17
				c-0.6,0.4-1.3,0.8-2.1,1.2c-0.8,0.4-1.7,0.7-2.7,0.9c-0.9,0.3-1.9,0.5-2.9,0.6c-1,0.1-2,0.2-3,0.2c-2.5,0-4.7-0.4-6.6-1.2
				c-2-0.8-3.6-2-5-3.6c-1.4-1.6-2.4-3.7-3.1-6.2c-0.7-2.5-1.1-5.5-1.1-8.9c0-3.6,0.5-6.6,1.4-9.2c0.9-2.5,2.1-4.6,3.6-6.2
				c1.5-1.6,3.2-2.8,5.2-3.5c2-0.7,4-1.1,6-1.1c2.2,0,4,0.1,5.5,0.4c1.4,0.2,2.7,0.6,3.6,1l-0.1,0.2v9.2h-4.1V152.9z"/>
			<path d="M218.4,187.7V184h7.5v-20.2h-7.5v-3.7h10.3l0.9,3.6h0.3c1.3-1.1,2.7-2.1,4.2-2.9c1.5-0.8,3.4-1.2,5.5-1.2
				c1.3,0,2.3,0.2,3,0.7c0.8,0.5,1.3,1.2,1.8,2.1c0.4,0.9,0.7,2,0.9,3.3c0.1,1.3,0.2,2.8,0.2,4.4l-3.9,0.1c0-2.3-0.2-4.1-0.7-5.1
				c-0.5-1.1-1.3-1.6-2.5-1.6c-1.1,0-2.2,0.2-3.1,0.5s-1.7,0.7-2.4,1.2c-0.7,0.5-1.3,1-1.7,1.4c-0.5,0.5-0.8,0.9-1,1.2V184h10.6v3.7
				H218.4z"/>
			<g>
				<path d="M302.3,184.1c-0.1-0.4-0.1-0.9-0.2-1.4c-0.1-0.5-0.1-1.1-0.2-1.6c-0.1-0.6-0.1-1.1-0.1-1.6c0-0.5-0.1-0.9-0.1-1.2v-29.2
					h-4.4v11.5c-0.6-0.1-1.1-0.3-1.5-0.4c-0.5-0.1-0.9-0.2-1.5-0.3c-0.5-0.1-1.1-0.1-1.7-0.2c-0.6,0-1.3-0.1-2.1-0.1
					c-2.1,0-4.1,0.3-5.8,0.9c-1.7,0.6-3.2,1.5-4.4,2.7c-1.2,1.2-2.2,2.7-2.8,4.5c-0.7,1.8-1,3.8-1,6.2c0,4.9,1,8.6,2.9,10.9
					c2,2.3,5,3.5,9.2,3.5c2.1,0,3.9-0.5,5.5-1.4c1.6-0.9,2.8-2.1,3.6-3.5h0.2l0.6,4.3h7.4v-3.6H302.3z M297.3,177.7
					c-0.5,2.3-1.4,4.1-2.6,5.2s-3,1.7-5.3,1.7c-1.5,0-2.8-0.3-3.9-0.8c-1.1-0.6-1.9-1.3-2.6-2.3c-0.6-1-1.1-2.1-1.4-3.4
					c-0.3-1.3-0.4-2.7-0.4-4.2c0-3.7,0.8-6.4,2.5-8.1c1.7-1.7,4-2.6,6.9-2.6c1.7,0,3,0.1,4,0.4c1,0.3,1.9,0.7,2.7,1.2V177.7z"/>
			</g>
			<path d="M250.4,187.7V184h9.6v-20.2h-9.6v-3.7h14V184h9.4v3.7H250.4z M265.7,152.7l-3.6-3.6l-3.6,3.6l3.6,3.6L265.7,152.7z"/>
			<g>
				<path d="M54,168.4c0-6.4,1.1-11.3,3.4-14.8c2.3-3.4,5.7-5.2,10.4-5.2c2.6,0,4.7,0.5,6.5,1.4c1.8,1,3.2,2.3,4.3,4
					c1.1,1.7,1.9,3.8,2.4,6.3c0.5,2.4,0.7,5.2,0.7,8.2c0,6.4-1.1,11.3-3.4,14.8c-2.3,3.5-5.8,5.2-10.5,5.2c-2.5,0-4.7-0.5-6.4-1.4
					c-1.8-1-3.2-2.3-4.3-4c-1.1-1.7-1.9-3.8-2.4-6.3C54.2,174.2,54,171.4,54,168.4z M58.8,168.4c0,2.1,0.1,4.1,0.4,6.1
					c0.3,1.9,0.8,3.6,1.5,5c0.7,1.5,1.6,2.6,2.8,3.5c1.1,0.9,2.6,1.3,4.4,1.3c3.2,0,5.5-1.3,6.9-3.9c1.5-2.6,2.2-6.6,2.2-12
					c0-2.1-0.1-4.1-0.4-6c-0.3-1.9-0.8-3.6-1.5-5.1c-0.7-1.4-1.6-2.6-2.8-3.5c-1.2-0.9-2.7-1.3-4.4-1.3c-3.1,0-5.4,1.3-6.8,3.9
					C59.5,159,58.8,163,58.8,168.4z"/>
				<path d="M89.7,169.8c0-0.3,0-0.8,0-1.3c0-0.5,0-1.1-0.1-1.7c0-0.6-0.1-1.1-0.1-1.7c-0.1-0.6-0.1-1-0.2-1.4h-3.7v-3.6h7.3
					l0.6,3.9h0.3c1-1.3,2.2-2.4,3.8-3.2c1.5-0.9,3.4-1.3,5.6-1.3c3.9,0,6.9,1.1,8.9,3.2c2,2.2,3,5.7,3,10.6c0,2.3-0.3,4.4-1,6.2
					c-0.7,1.9-1.6,3.4-2.9,4.7c-1.2,1.3-2.8,2.3-4.5,3c-1.8,0.7-3.7,1-5.8,1c-0.8,0-1.5,0-2.1-0.1c-0.6-0.1-1.2-0.1-1.7-0.2
					c-0.5-0.1-1-0.2-1.5-0.4c-0.5-0.1-1-0.3-1.5-0.6v10.1h-4.2V169.8z M102.3,163.6c-1.1,0-2.1,0.2-3.1,0.6c-1,0.4-1.8,0.9-2.6,1.6
					c-0.8,0.7-1.4,1.4-1.8,2.2c-0.5,0.8-0.8,1.6-0.9,2.4v12.5c0.8,0.6,1.7,1,2.7,1.3c1,0.3,2.3,0.5,4,0.5c2.9,0,5.3-1,7-2.9
					c1.8-1.9,2.6-4.7,2.6-8.4c0-3.1-0.6-5.5-1.8-7.2C107.2,164.4,105.2,163.6,102.3,163.6z"/>
				<path d="M145.5,184.2c-0.7,0.6-1.4,1.1-2.3,1.7c-0.9,0.5-1.9,1-2.9,1.3c-1.1,0.4-2.2,0.7-3.3,0.9c-1.2,0.2-2.3,0.3-3.5,0.3
					c-2.2,0-4.1-0.3-5.8-1c-1.7-0.7-3.1-1.7-4.2-2.9c-1.1-1.3-2-2.8-2.6-4.5c-0.6-1.8-0.9-3.7-0.9-5.9c0-2.3,0.3-4.4,1-6.2
					c0.6-1.8,1.6-3.3,2.8-4.5c1.2-1.2,2.7-2.1,4.4-2.8c1.7-0.6,3.7-1,5.8-1c1.5,0,3.1,0.2,4.6,0.6c1.5,0.4,2.8,1.2,4,2.3
					c1.2,1.1,2,2.7,2.7,4.6c0.6,2,0.8,4.5,0.7,7.6h-21.3c0,3.3,0.9,5.8,2.7,7.4c1.8,1.6,4.1,2.4,7.1,2.4c1,0,2-0.1,2.9-0.4
					c1-0.2,1.9-0.5,2.8-0.9c0.9-0.3,1.7-0.7,2.3-1.1c0.7-0.4,1.2-0.8,1.6-1.1L145.5,184.2z M133.9,163.1c-1.2,0-2.4,0.1-3.4,0.4
					c-1.1,0.3-2,0.7-2.9,1.3c-0.8,0.6-1.5,1.4-2,2.4c-0.5,1-0.9,2.2-1,3.6h17.1c-0.2-2.4-1-4.3-2.3-5.6
					C138,163.8,136.2,163.1,133.9,163.1z"/>
				<path d="M153.9,169.8c0-0.3,0-0.8,0-1.3c0-0.5,0-1.1-0.1-1.7c0-0.6-0.1-1.1-0.1-1.7c-0.1-0.6-0.1-1-0.2-1.4h-3.7v-3.6h7.4
					l0.5,4.5h0.3c0.4-0.6,0.9-1.2,1.5-1.8s1.3-1.2,2.1-1.7c0.8-0.5,1.7-0.9,2.7-1.2c1-0.3,2-0.4,3.1-0.4c1.7,0,3.2,0.2,4.5,0.6
					c1.3,0.4,2.4,1,3.2,2c0.9,0.9,1.5,2.2,2,3.8c0.4,1.6,0.7,3.6,0.7,6.1v15.8h-4.3v-14.9c0-3-0.5-5.3-1.5-6.9s-2.8-2.3-5.4-2.3
					c-1,0-1.9,0.2-2.8,0.6c-0.9,0.4-1.7,0.9-2.4,1.5c-0.7,0.6-1.4,1.3-1.9,2.2c-0.5,0.8-1,1.7-1.2,2.6v17.2h-4.2V169.8z"/>
			</g>
			<g>
				<path d="M125.6,208.3v-8.1h3.4c0.9,0,1.6,0.2,2.1,0.7c0.4,0.5,0.7,1.1,0.7,1.8c0,0.7-0.2,1.3-0.7,1.8c-0.5,0.5-1.1,0.8-2,0.8h-2
					v3.1H125.6z M129,204c0.4,0,0.7-0.1,0.9-0.4c0.2-0.2,0.3-0.5,0.3-0.8c0-0.3-0.1-0.6-0.3-0.8c-0.2-0.2-0.5-0.4-0.9-0.4h-2.1v2.4
					H129z"/>
				<path d="M137.2,208.5c-0.5,0-1-0.1-1.4-0.2c-0.4-0.2-0.7-0.4-1-0.7c-0.3-0.3-0.5-0.6-0.7-1c-0.2-0.4-0.3-0.7-0.4-1.1
					c-0.1-0.4-0.1-0.8-0.1-1.2c0-0.4,0-0.8,0.1-1.2c0.1-0.4,0.2-0.8,0.4-1.1c0.2-0.4,0.4-0.7,0.7-1c0.3-0.3,0.6-0.5,1-0.7
					c0.4-0.2,0.9-0.2,1.4-0.2c0.6,0,1.2,0.1,1.7,0.4c0.5,0.2,0.8,0.6,1.1,1c0.3,0.4,0.5,0.9,0.6,1.3c0.1,0.5,0.2,1,0.2,1.5
					c0,0.5-0.1,1-0.2,1.5c-0.1,0.5-0.3,0.9-0.6,1.3c-0.3,0.4-0.6,0.7-1.1,1C138.4,208.4,137.9,208.5,137.2,208.5z M137.2,207.2
					c0.4,0,0.7-0.1,1-0.3c0.3-0.2,0.5-0.4,0.7-0.7c0.2-0.3,0.3-0.6,0.4-0.9c0.1-0.3,0.1-0.6,0.1-1c0-0.4,0-0.7-0.1-1
					c-0.1-0.3-0.2-0.6-0.4-0.9c-0.2-0.3-0.4-0.5-0.7-0.7c-0.3-0.2-0.6-0.3-1-0.3c-0.5,0-0.9,0.2-1.2,0.5c-0.3,0.3-0.6,0.7-0.7,1.1
					c-0.1,0.4-0.2,0.8-0.2,1.3c0,0.3,0,0.7,0.1,1c0.1,0.3,0.2,0.6,0.4,0.9c0.2,0.3,0.4,0.5,0.7,0.7
					C136.5,207.1,136.9,207.2,137.2,207.2z"/>
				<path d="M144.6,208.3l-1.7-8.1h1.4l1,4.8c0.1,0.4,0.1,0.7,0.1,0.8c0-0.2,0.1-0.4,0.2-0.8l1.2-4.8h1.2l1.2,4.8
					c0.1,0.3,0.1,0.5,0.2,0.8c0-0.2,0.1-0.5,0.1-0.8l1-4.8h1.4l-1.8,8.1h-1.3l-1.3-5c-0.1-0.3-0.1-0.6-0.2-0.8
					c0,0.2-0.1,0.4-0.2,0.7l-1.3,5H144.6z"/>
				<path d="M154.2,208.3v-8.1h5.3v1.3h-3.9v2h2.4v1.3h-2.4v2.2h4.2v1.3H154.2z"/>
				<path d="M162.5,208.3v-8.1h3.6c0.9,0,1.6,0.2,2,0.7c0.4,0.5,0.6,1.1,0.6,1.8c0,0.5-0.1,1-0.4,1.4c-0.3,0.4-0.7,0.7-1.2,0.9
					l1.6,3.3h-1.6l-1.6-3.2h-1.7v3.2H162.5z M163.9,203.8h2.2c0.4,0,0.7-0.1,0.9-0.3c0.2-0.2,0.3-0.5,0.3-0.8c0-0.3-0.1-0.6-0.3-0.8
					c-0.2-0.2-0.5-0.3-0.9-0.3h-2.2V203.8z"/>
				<path d="M171.6,208.3v-8.1h5.3v1.3H173v2h2.4v1.3H173v2.2h4.2v1.3H171.6z"/>
				<path d="M179.9,200.2h2.5c0.5,0,1,0.1,1.5,0.2c0.4,0.2,0.8,0.4,1.1,0.6c0.3,0.3,0.5,0.6,0.7,0.9s0.3,0.7,0.4,1.1
					c0.1,0.4,0.1,0.8,0.1,1.2c0,0.4,0,0.8-0.1,1.1c-0.1,0.4-0.2,0.7-0.4,1.1c-0.2,0.4-0.4,0.7-0.7,0.9c-0.3,0.3-0.7,0.5-1.1,0.6
					c-0.5,0.2-1,0.2-1.5,0.2h-2.5V200.2z M182.5,207c0.4,0,0.8-0.1,1.1-0.2c0.3-0.2,0.6-0.4,0.7-0.7c0.2-0.3,0.3-0.6,0.4-0.9
					c0.1-0.3,0.1-0.6,0.1-1c0-0.8-0.2-1.4-0.6-1.9c-0.4-0.5-0.9-0.8-1.6-0.8h-1.4v5.5H182.5z"/>
				<path d="M193.1,200.2h3.3c0.9,0,1.6,0.2,2,0.6c0.4,0.4,0.6,0.9,0.6,1.6c0,0.8-0.3,1.3-1,1.7c0.4,0.2,0.8,0.4,1,0.8
					c0.2,0.3,0.3,0.7,0.3,1.1c0,0.6-0.2,1.2-0.7,1.7c-0.4,0.5-1.1,0.7-2,0.7h-3.5V200.2z M196.2,203.5c0.4,0,0.8-0.1,1-0.3
					c0.2-0.2,0.4-0.4,0.4-0.7c0-0.7-0.4-1-1.2-1h-2v2H196.2z M196.7,207.1c0.4,0,0.7-0.1,0.9-0.3c0.2-0.2,0.3-0.5,0.3-0.8
					c0-0.8-0.5-1.2-1.6-1.2h-1.8v2.3H196.7z"/>
				<path d="M204.1,208.3v-3.2l-2.9-4.9h1.6l2,3.5l2-3.5h1.6l-2.9,4.9v3.2H204.1z"/>
			</g>
		</g>
	</g>
</g>
</svg>
