<?xml version="1.0" encoding="utf-8"?>
<!-- Generator: Adobe Illustrator 22.0.1, SVG Export Plug-In . SVG Version: 6.00 Build 0)  -->
<svg version="1.1" xmlns="http://www.w3.org/2000/svg" xmlns:xlink="http://www.w3.org/1999/xlink" x="0px" y="0px"
	 viewBox="0 0 360 360" style="enable-background:new 0 0 360 360;" xml:space="preserve">
<style type="text/css">
	.st0{display:none;}
	.st1{display:inline;}
	.st2{display:inline;fill:#323232;}
	.st3{fill:#FFFFFF;}
	.st4{fill:url(#SVGID_1_);}
	.st5{fill:url(#SVGID_2_);}
	.st6{fill:url(#SVGID_3_);}
	.st7{fill:url(#SVGID_4_);}
	.st8{fill:url(#SVGID_5_);}
	.st9{fill:url(#SVGID_6_);}
	.st10{fill:url(#SVGID_7_);}
	.st11{fill:url(#SVGID_8_);}
	.st12{fill:url(#SVGID_10_);}
	.st13{fill:url(#SVGID_11_);}
	.st14{fill:url(#SVGID_12_);}
	.st15{fill:url(#SVGID_13_);}
	.st16{fill:url(#SVGID_14_);}
	.st17{fill:url(#SVGID_15_);}
	.st18{fill:url(#SVGID_16_);}
	.st19{fill:url(#SVGID_18_);}
	.st20{fill:url(#SVGID_20_);}
	.st21{fill:url(#SVGID_21_);}
	.st22{fill:url(#SVGID_22_);}
	.st23{fill:url(#SVGID_23_);}
	.st24{fill:url(#SVGID_24_);}
	.st25{fill:url(#SVGID_25_);}
	.st26{fill:url(#SVGID_26_);}
	.st27{fill:url(#SVGID_28_);}
	.st28{fill:url(#SVGID_29_);}
	.st29{fill:url(#SVGID_30_);}
	.st30{fill:url(#SVGID_31_);}
	.st31{fill:url(#SVGID_32_);}
	.st32{fill:url(#SVGID_33_);}
	.st33{fill:url(#SVGID_34_);}
	.st34{fill:url(#SVGID_35_);}
	.st35{fill:url(#SVGID_36_);}
	.st36{fill:#808080;}
	.st37{fill:url(#SVGID_38_);}
	.st38{fill:url(#SVGID_39_);}
	.st39{fill:url(#SVGID_40_);}
	.st40{fill:url(#SVGID_41_);}
	.st41{fill:url(#SVGID_42_);}
	.st42{fill:url(#SVGID_43_);}
	.st43{fill:url(#SVGID_44_);}
	.st44{fill:url(#SVGID_46_);}
	.st45{fill:url(#SVGID_48_);}
	.st46{fill:url(#SVGID_49_);}
	.st47{fill:url(#SVGID_50_);}
	.st48{fill:url(#SVGID_51_);}
	.st49{fill:url(#SVGID_52_);}
	.st50{fill:url(#SVGID_53_);}
	.st51{fill:url(#SVGID_54_);}
	.st52{fill:url(#SVGID_56_);}
	.st53{fill:url(#SVGID_58_);}
	.st54{fill:url(#SVGID_59_);}
	.st55{fill:url(#SVGID_60_);}
	.st56{fill:url(#SVGID_61_);}
	.st57{fill:url(#SVGID_62_);}
	.st58{fill:url(#SVGID_63_);}
	.st59{fill:url(#SVGID_64_);}
	.st60{fill:url(#SVGID_66_);}
	.st61{fill:url(#SVGID_68_);}
	.st62{fill:url(#SVGID_69_);}
	.st63{fill:url(#SVGID_70_);}
	.st64{fill:url(#SVGID_71_);}
	.st65{fill:url(#SVGID_72_);}
	.st66{fill:url(#SVGID_73_);}
	.st67{fill:url(#SVGID_74_);}
	.st68{fill:url(#SVGID_76_);}
	.st69{fill:url(#SVGID_77_);}
	.st70{fill:url(#SVGID_78_);}
	.st71{fill:url(#SVGID_79_);}
	.st72{fill:url(#SVGID_80_);}
	.st73{fill:url(#SVGID_81_);}
	.st74{fill:url(#SVGID_82_);}
	.st75{fill:url(#SVGID_83_);}
	.st76{fill:url(#SVGID_84_);}
	.st77{fill:url(#SVGID_86_);}
	.st78{fill:url(#SVGID_87_);}
	.st79{clip-path:url(#SVGID_88_);}
	.st80{fill:url(#SVGID_89_);}
	.st81{fill:url(#SVGID_91_);}
	.st82{fill:url(#SVGID_92_);}
	.st83{clip-path:url(#SVGID_94_);}
	.st84{fill:url(#SVGID_95_);}
	.st85{fill:url(#SVGID_98_);}
	.st86{fill:url(#SVGID_99_);}
	.st87{clip-path:url(#SVGID_101_);}
	.st88{fill:url(#SVGID_102_);}
	.st89{fill:url(#SVGID_105_);}
	.st90{fill:url(#SVGID_106_);}
	.st91{clip-path:url(#SVGID_108_);}
	.st92{fill:url(#SVGID_109_);}
	.st93{fill:url(#SVGID_112_);}
	.st94{fill:url(#SVGID_113_);}
	.st95{clip-path:url(#SVGID_115_);}
	.st96{fill:url(#SVGID_116_);}
	.st97{fill:#F2F2F2;}
	.st98{fill:url(#SVGID_119_);}
	.st99{fill:url(#SVGID_120_);}
	.st100{clip-path:url(#SVGID_122_);}
	.st101{fill:url(#SVGID_123_);}
	.st102{opacity:0.7;fill:#FFFFFF;}
	.st103{opacity:0.9;fill:#FFFFFF;}
</style>
<g id="Backgrounds" class="st0">
</g>
<g id="Logos">
	<g>
		<path d="M36,175.6c0-6.4,1.1-11.3,3.4-14.8c2.3-3.5,5.7-5.2,10.4-5.2c2.6,0,4.7,0.5,6.5,1.4c1.8,1,3.2,2.3,4.3,4.1
			c1.1,1.7,1.9,3.8,2.4,6.3c0.5,2.4,0.7,5.2,0.7,8.2c0,6.4-1.1,11.3-3.4,14.8c-2.3,3.5-5.8,5.2-10.5,5.2c-2.5,0-4.7-0.5-6.4-1.4
			c-1.8-1-3.2-2.3-4.3-4.1c-1.1-1.7-1.9-3.8-2.4-6.3C36.2,181.3,36,178.6,36,175.6z M40.8,175.6c0,2.1,0.1,4.2,0.4,6.1
			c0.3,1.9,0.8,3.6,1.5,5c0.7,1.5,1.6,2.6,2.8,3.5c1.1,0.9,2.6,1.3,4.4,1.3c3.2,0,5.5-1.3,6.9-3.9c1.5-2.6,2.2-6.6,2.2-12
			c0-2.1-0.1-4.1-0.4-6c-0.3-1.9-0.8-3.6-1.5-5.1c-0.7-1.5-1.6-2.6-2.8-3.5c-1.2-0.9-2.7-1.3-4.4-1.3c-3.1,0-5.4,1.3-6.9,3.9
			C41.5,166.2,40.8,170.2,40.8,175.6z"/>
		<path d="M71.7,176.9c0-0.3,0-0.8,0-1.3c0-0.5,0-1.1-0.1-1.7c0-0.6-0.1-1.1-0.1-1.7c-0.1-0.6-0.1-1-0.2-1.4h-3.7v-3.6h7.3l0.6,3.9
			h0.3c1-1.3,2.3-2.4,3.8-3.2c1.5-0.9,3.4-1.3,5.6-1.3c3.9,0,6.9,1.1,8.9,3.3c2,2.2,3,5.7,3,10.6c0,2.3-0.3,4.4-1,6.3
			c-0.7,1.9-1.6,3.4-2.9,4.7c-1.2,1.3-2.8,2.3-4.5,3c-1.8,0.7-3.7,1-5.8,1c-0.8,0-1.5,0-2.1-0.1c-0.6-0.1-1.2-0.1-1.7-0.2
			c-0.5-0.1-1-0.2-1.5-0.4c-0.5-0.1-1-0.3-1.5-0.6v10.1h-4.2V176.9z M84.4,170.7c-1.1,0-2.1,0.2-3.1,0.6c-1,0.4-1.8,0.9-2.6,1.6
			c-0.8,0.7-1.4,1.4-1.8,2.2c-0.5,0.8-0.8,1.6-0.9,2.4v12.5c0.8,0.6,1.7,1,2.7,1.3c1,0.3,2.3,0.5,4,0.5c2.9,0,5.3-1,7.1-2.9
			c1.8-1.9,2.6-4.7,2.6-8.4c0-3.1-0.6-5.5-1.8-7.2C89.3,171.6,87.3,170.7,84.4,170.7z"/>
		<path d="M127.7,191.4c-0.7,0.6-1.4,1.1-2.3,1.7c-0.9,0.5-1.9,1-3,1.3c-1.1,0.4-2.2,0.7-3.3,0.9c-1.2,0.2-2.3,0.3-3.5,0.3
			c-2.2,0-4.2-0.3-5.8-1c-1.7-0.7-3.1-1.7-4.2-2.9c-1.1-1.3-2-2.8-2.6-4.5c-0.6-1.8-0.9-3.7-0.9-6c0-2.3,0.3-4.4,1-6.2
			c0.6-1.8,1.6-3.3,2.8-4.5c1.2-1.2,2.7-2.1,4.4-2.8c1.7-0.6,3.7-1,5.8-1c1.5,0,3.1,0.2,4.6,0.6c1.5,0.4,2.8,1.2,4,2.3
			c1.2,1.1,2.1,2.7,2.7,4.6c0.6,2,0.8,4.5,0.7,7.6h-21.3c0,3.3,0.9,5.8,2.7,7.4c1.8,1.6,4.2,2.5,7.1,2.5c1,0,2-0.1,2.9-0.4
			c1-0.2,1.9-0.5,2.8-0.9c0.9-0.3,1.7-0.7,2.3-1.1c0.7-0.4,1.2-0.8,1.6-1.1L127.7,191.4z M116.1,170.3c-1.2,0-2.4,0.1-3.4,0.4
			c-1.1,0.3-2,0.7-2.9,1.3c-0.8,0.6-1.5,1.4-2,2.4c-0.5,1-0.9,2.2-1,3.6h17.1c-0.2-2.4-1-4.3-2.3-5.7
			C120.1,170.9,118.3,170.3,116.1,170.3z"/>
		<path d="M136.1,176.9c0-0.3,0-0.8,0-1.3c0-0.5,0-1.1-0.1-1.7c0-0.6-0.1-1.1-0.1-1.7c-0.1-0.6-0.1-1-0.2-1.4h-3.7v-3.6h7.4l0.5,4.5
			h0.3c0.4-0.6,0.9-1.2,1.5-1.8c0.6-0.6,1.3-1.2,2.1-1.7c0.8-0.5,1.7-0.9,2.7-1.2c1-0.3,2-0.4,3.1-0.4c1.7,0,3.2,0.2,4.5,0.6
			c1.3,0.4,2.4,1,3.3,2c0.9,0.9,1.5,2.2,2,3.8c0.4,1.6,0.7,3.6,0.7,6.1v15.8h-4.4v-15c0-3-0.5-5.3-1.5-6.9c-1-1.5-2.8-2.3-5.4-2.3
			c-1,0-1.9,0.2-2.8,0.6c-0.9,0.4-1.7,0.9-2.4,1.5s-1.4,1.3-1.9,2.2c-0.5,0.8-1,1.7-1.2,2.6v17.3h-4.2V176.9z"/>
		<path d="M232.2,176.9c0-0.3,0-0.8,0-1.3c0-0.5,0-1.1-0.1-1.7c0-0.6-0.1-1.1-0.1-1.7c-0.1-0.6-0.1-1-0.2-1.4H228v-3.6h7.4l0.5,4.5
			h0.3c0.4-0.6,0.9-1.2,1.5-1.8c0.6-0.6,1.3-1.2,2.1-1.7c0.8-0.5,1.7-0.9,2.7-1.2c1-0.3,2-0.4,3.1-0.4c1.7,0,3.2,0.2,4.5,0.6
			c1.3,0.4,2.4,1,3.3,2c0.9,0.9,1.5,2.2,2,3.8c0.4,1.6,0.7,3.6,0.7,6.1v15.8h-4.4v-15c0-3-0.5-5.3-1.5-6.9s-2.8-2.3-5.4-2.3
			c-1,0-1.9,0.2-2.8,0.6c-0.9,0.4-1.7,0.9-2.4,1.5s-1.4,1.3-1.9,2.2c-0.5,0.8-1,1.7-1.2,2.6v17.3h-4.2V176.9z"/>
		<path d="M288.4,191.4c-0.7,0.6-1.4,1.1-2.3,1.7c-0.9,0.5-1.9,1-3,1.3c-1.1,0.4-2.2,0.7-3.3,0.9c-1.2,0.2-2.3,0.3-3.5,0.3
			c-2.2,0-4.2-0.3-5.8-1c-1.7-0.7-3.1-1.7-4.2-2.9c-1.1-1.3-2-2.8-2.6-4.5c-0.6-1.8-0.9-3.7-0.9-6c0-2.3,0.3-4.4,1-6.2
			c0.6-1.8,1.6-3.3,2.8-4.5c1.2-1.2,2.7-2.1,4.4-2.8c1.7-0.6,3.7-1,5.8-1c1.5,0,3.1,0.2,4.6,0.6c1.5,0.4,2.8,1.2,4,2.3
			c1.2,1.1,2.1,2.7,2.7,4.6c0.6,2,0.8,4.5,0.7,7.6h-21.3c0,3.3,0.9,5.8,2.7,7.4c1.8,1.6,4.2,2.5,7.1,2.5c1,0,2-0.1,2.9-0.4
			c1-0.2,1.9-0.5,2.8-0.9c0.9-0.3,1.7-0.7,2.3-1.1c0.7-0.4,1.2-0.8,1.6-1.1L288.4,191.4z M276.8,170.3c-1.2,0-2.4,0.1-3.4,0.4
			c-1.1,0.3-2,0.7-2.9,1.3c-0.8,0.6-1.5,1.4-2,2.4c-0.5,1-0.9,2.2-1,3.6h17.1c-0.2-2.4-1-4.3-2.3-5.7
			C280.8,170.9,279,170.3,276.8,170.3z"/>
		<g>
			<path d="M320.3,191.3c-0.1-0.4-0.1-0.9-0.2-1.4c-0.1-0.5-0.1-1.1-0.2-1.6c-0.1-0.6-0.1-1.1-0.1-1.6c0-0.5-0.1-0.9-0.1-1.2v-29.2
				h-4.4v11.5c-0.6-0.1-1.1-0.3-1.5-0.4c-0.5-0.1-0.9-0.2-1.5-0.3c-0.5-0.1-1.1-0.1-1.7-0.2c-0.6,0-1.3-0.1-2.1-0.1
				c-2.1,0-4.1,0.3-5.8,0.9c-1.7,0.6-3.2,1.5-4.4,2.7c-1.2,1.2-2.2,2.7-2.8,4.5c-0.7,1.8-1,3.8-1,6.1c0,4.9,1,8.6,2.9,10.9
				c2,2.3,5,3.5,9.2,3.5c2.1,0,3.9-0.5,5.5-1.4c1.6-0.9,2.8-2.1,3.6-3.5h0.2l0.6,4.2h7.4v-3.6H320.3z M315.3,184.9
				c-0.5,2.3-1.4,4.1-2.6,5.2c-1.3,1.2-3,1.7-5.3,1.7c-1.5,0-2.8-0.3-3.9-0.8c-1.1-0.6-1.9-1.3-2.6-2.3c-0.6-1-1.1-2.1-1.4-3.4
				c-0.3-1.3-0.4-2.7-0.4-4.2c0-3.7,0.8-6.4,2.5-8.1c1.7-1.7,4-2.6,6.9-2.6c1.6,0,3,0.1,4,0.4c1,0.3,1.9,0.7,2.7,1.2V184.9z"/>
		</g>
		<path d="M202.7,194.9v-3.7h9.6V171h-9.6v-3.7h14v23.9h9.4v3.7H202.7z M218,159.9l-3.6-3.6l-3.6,3.6l3.6,3.6L218,159.9z"/>
		<path d="M191.3,156.3l-9.2,14.8l-9.2-14.8h-4.2v38.6h4.5v-29.6l7.3,11.4c0.8,1.3,2.7,1.3,3.5,0l7.3-11.4v29.6h4.5v-38.6H191.3z"/>
	</g>
</g>
</svg>
